<svg id="Layer_1" data-name="Layer 1" xmlns="http://www.w3.org/2000/svg" xmlns:xlink="http://www.w3.org/1999/xlink" viewBox="0 0 971.76 999.99"><defs><style>.cls-1{fill:none;}.cls-2{clip-path:url(#clip-path);}.cls-3{fill:#976945;}.cls-4{fill:#875e3d;}.cls-5{clip-path:url(#clip-path-3);}.cls-6{opacity:0.05;}.cls-15,.cls-6{isolation:isolate;}.cls-7{clip-path:url(#clip-path-4);}.cls-8{fill:#b58463;}.cls-9{fill:#fff;}.cls-10{clip-path:url(#clip-path-6);}.cls-11{clip-path:url(#clip-path-7);}.cls-12{fill:#7a5436;}.cls-13{clip-path:url(#clip-path-9);}.cls-14{clip-path:url(#clip-path-10);}.cls-15{opacity:0.1;}.cls-16{clip-path:url(#clip-path-12);}.cls-17{clip-path:url(#clip-path-13);}.cls-18{fill:#bc3331;}.cls-19{clip-path:url(#clip-path-14);}.cls-20{clip-path:url(#clip-path-15);}.cls-21{clip-path:url(#clip-path-17);}.cls-22{clip-path:url(#clip-path-18);}.cls-23{fill:#b87d4b;}.cls-24{fill:#d99a5d;}.cls-25{fill:#1d1510;}.cls-26{fill:#e1b283;}.cls-27{clip-path:url(#clip-path-19);}.cls-28{clip-path:url(#clip-path-20);}.cls-29{clip-path:url(#clip-path-21);}</style><clipPath id="clip-path" transform="translate(0 -21)"><rect class="cls-1" y="21" width="971.76" height="1000"/></clipPath><clipPath id="clip-path-3" transform="translate(0 -21)"><path class="cls-1" d="M224.5,64.08c-123.12,37.27-183.73,152.08-200,284.39a650,650,0,0,0,22.17,251C177.42,697.92,416,645.56,416,645.56S645.24,500,700.53,345A907.27,907.27,0,0,0,580.16,170.62,347.73,347.73,0,0,0,224.5,64.08"/></clipPath><clipPath id="clip-path-4" transform="translate(0 -21)"><rect class="cls-1" y="181.54" width="366.9" height="491.71"/></clipPath><clipPath id="clip-path-6" transform="translate(0 -21)"><path class="cls-1" d="M349.24,831.17c19.83,158,226.12,175.62,226.12,175.62h41c126.42-113.43,78.11-213.72,78.11-213.72-35.57-30.71-77.29-41.92-119.28-41.92-112.28,0-226,80-226,80"/></clipPath><clipPath id="clip-path-7" transform="translate(0 -21)"><rect class="cls-1" x="501.93" y="784.9" width="194.72" height="207.77"/></clipPath><clipPath id="clip-path-9" transform="translate(0 -21)"><path class="cls-1" d="M130.25,697.92c-21.21,34.62-58.56,63-52.13,136.84,13.67,158.6,133.52,182.7,133.52,182.7h59.09C381,954.45,395.08,859,389.45,837c-19-81.29-134-104.44-134-104.44l-10.69-92s-93.29,22.72-114.47,57.34"/></clipPath><clipPath id="clip-path-10" transform="translate(0 -21)"><rect class="cls-1" x="20.79" y="695.31" width="191.51" height="322.02"/></clipPath><clipPath id="clip-path-12" transform="translate(0 -21)"><rect class="cls-1" x="83.85" y="746.38" width="76.02" height="28.41"/></clipPath><clipPath id="clip-path-13" transform="translate(0 -21)"><path class="cls-1" d="M154.16,595.15a659.19,659.19,0,0,0-42.93,89.32c-7.81,27.71-29.14,68.15-28.6,73.84a29.58,29.58,0,0,1-3.28,9.7,8.52,8.52,0,0,0,4.51,6.63,958.51,958.51,0,0,1,209.87-46c98.89-7.21,158.64-67.32,226-74.26s86.83,5,86.83,5a12.9,12.9,0,0,0,0-10.1,12.87,12.87,0,0,0,1-8,19.16,19.16,0,0,0-5.35-3.62s1-53-79.74-146.82c0.3,0-230.36,8.31-368.26,104.32"/></clipPath><clipPath id="clip-path-14" transform="translate(0 -21)"><rect class="cls-1" x="57.33" y="523.66" width="245.95" height="258.04"/></clipPath><clipPath id="clip-path-15" transform="translate(0 -21)"><rect class="cls-1" x="74.68" y="695.31" width="75.93" height="70.53"/></clipPath><clipPath id="clip-path-17" transform="translate(0 -21)"><rect class="cls-1" x="151.7" y="763.3" width="548.71" height="138.09"/></clipPath><clipPath id="clip-path-18" transform="translate(0 -21)"><rect class="cls-1" x="246.79" y="501.21" width="48.83" height="62.91"/></clipPath><clipPath id="clip-path-19" transform="translate(0 -21)"><rect class="cls-1" x="270.04" y="560.93" width="220.35" height="304.46"/></clipPath><clipPath id="clip-path-20" transform="translate(0 -21)"><path class="cls-1" d="M111.08,592.23c3.27,147.52,45.16,200.15,102.45,244.48s154.33,66.35,272.36,36a18.71,18.71,0,0,0,16.28-11.21l-11.9,3.74c-88.38-77.71-86.59-124.8-152-210.83a234.1,234.1,0,0,1-31.75-49.32s-50.7-75.26-110.76-75.26c-27.6,0-57.19,15.94-84.72,62.39"/></clipPath><clipPath id="clip-path-21" transform="translate(0 -21)"><rect class="cls-1" x="80.97" y="585.18" width="423.24" height="356.82"/></clipPath></defs><title>helpful wombat</title><g class="cls-2"><g class="cls-2"><path class="cls-3" d="M392.87,21L357.71,63.8l37.62,42.81,63.33-1.8A276.13,276.13,0,0,0,392.87,21" transform="translate(0 -21)"/><polygon class="cls-4" points="366.2 52.24 357.71 42.53 392.87 0 396.59 57.77 366.2 52.24"/><path class="cls-3" d="M65.95,120.6l52.52,15.91-7.93,56.8-53.75,34A279.64,279.64,0,0,1,65.95,120.6" transform="translate(0 -21)"/><polygon class="cls-4" points="116.69 128.26 118.47 115.39 65.95 99.6 94.25 149.74 116.69 128.26"/></g><g class="cls-5"><path class="cls-3" d="M580.16,170.62C491.31,69.4,353.41,28.12,224.5,64.08c-123.12,37.27-183.73,152.08-200,284.39a650,650,0,0,0,22.17,251C177.42,697.92,416,645.56,416,645.56S645.24,500,700.53,345A907,907,0,0,0,580.16,170.62" transform="translate(0 -21)"/><g class="cls-6"><g class="cls-7"><path d="M0,209.25l77.28-27.71s-70.42,202.64,33.8,370c0,0,133.25,69.27,255.82,58.59L105.61,673.25,4.24,620.35Z" transform="translate(0 -21)"/></g></g></g><g class="cls-2"><path class="cls-4" d="M488,327.15c53.43-16.27,103-8.24,110.78,17.91s-29.23,60.54-82.61,76.78-103,8.24-110.77-17.91,29.23-60.51,82.61-76.78" transform="translate(0 -21)"/><path d="M485.56,318c53.38-16.27,103-8.24,110.78,17.91s-29.23,60.54-82.62,76.81-103,8.21-110.77-17.91,29.23-60.54,82.62-76.81" transform="translate(0 -21)"/><path class="cls-8" d="M379.22,350.26A22.39,22.39,0,0,1,364.45,378a22,22,0,0,1-27.43-15,22.3,22.3,0,0,1,14.76-27.74s0,0,.06,0a22,22,0,0,1,27.37,15" transform="translate(0 -21)"/><path d="M358.64,343.49a16.34,16.34,0,0,1,20.43,11.13,16.64,16.64,0,0,1-11,20.71,16.4,16.4,0,0,1-20.45-11.13,16.66,16.66,0,0,1,11-20.71" transform="translate(0 -21)"/><path class="cls-9" d="M366.4,356.12a5.31,5.31,0,0,1,6.64,3.63,5.37,5.37,0,0,1-3.55,6.69,5.3,5.3,0,0,1-6.64-3.59,5.41,5.41,0,0,1,3.55-6.73" transform="translate(0 -21)"/><path class="cls-8" d="M553.61,296.08a22,22,0,0,0,27.41,15,22.3,22.3,0,0,0,14.81-27.69,22,22,0,0,0-27.35-15.07,0.13,0.13,0,0,1-.1,0,22.38,22.38,0,0,0-14.78,27.68" transform="translate(0 -21)"/><path d="M569.58,279.83A16.37,16.37,0,0,1,590,291a16.67,16.67,0,0,1-11,20.68,16.31,16.31,0,0,1-20.39-11.12,16.58,16.58,0,0,1,11-20.69" transform="translate(0 -21)"/><path class="cls-9" d="M568.18,294.34a5.32,5.32,0,0,1,6.64,3.62,5.42,5.42,0,0,1-3.55,6.73,5.3,5.3,0,0,1-6.64-3.63,5.41,5.41,0,0,1,3.55-6.72" transform="translate(0 -21)"/></g><g class="cls-10"><path class="cls-4" d="M694.52,793.08s48.31,100.28-78.11,213.72h-41S369.07,989.21,349.24,831.17c0,0,214.64-151,345.27-38.1" transform="translate(0 -21)"/><g class="cls-6"><g class="cls-11"><path d="M695.72,784.9c0,2.22,25.18,195.85-193.79,207.77Z" transform="translate(0 -21)"/></g></g><path class="cls-12" d="M660.75,999c0,9.69-22.71,11.09-45.43,11.09s-41,2.07-41-6.94,22.71-24,45.43-24,41,10.11,41,19.81" transform="translate(0 -21)"/></g><g class="cls-2"><path class="cls-8" d="M154.31,634.61c-6.7,94.06-70.45,91-76.19,190-3.42,58.58,97.68,197.94,342,180.07S715,858.45,684.54,730.74,543.33,472.56,543.33,472.56,161,540.42,154.31,634.61" transform="translate(0 -21)"/></g><g class="cls-13"><path class="cls-3" d="M389.45,837c-19-81.29-134-104.44-134-104.44l-10.69-92s-93.29,22.72-114.47,57.34-58.56,63-52.13,136.84c13.67,158.6,133.52,182.7,133.52,182.7h59.09C381,954.45,395.08,859,389.45,837" transform="translate(0 -21)"/><g class="cls-6"><g class="cls-14"><path d="M79.35,695.31l53.36,35.44S71.15,906,212.3,1014l-109.42,3.3L20.79,764.39Z" transform="translate(0 -21)"/></g></g><path class="cls-12" d="M302.73,1009.71c0,9.69-23.67,11.08-47.46,11.08s-43,2.07-43-6.92,23.67-24,47.47-24,43,10.13,43,19.81" transform="translate(0 -21)"/></g><g class="cls-2"><g class="cls-15"><g class="cls-16"><path d="M83.85,774.79A648,648,0,0,1,150.73,763c10.69,0,9-7.48,9-7.48l-12.32-9.16Z" transform="translate(0 -21)"/></g></g></g><g class="cls-17"><path class="cls-18" d="M154.16,595.15a659.19,659.19,0,0,0-42.93,89.32c-7.81,27.71-29.14,68.15-28.6,73.84a29.58,29.58,0,0,1-3.28,9.7,8.52,8.52,0,0,0,4.51,6.63,959,959,0,0,1,209.87-46c98.89-7.21,158.64-67.32,226-74.26s86.83,5,86.83,5a12.9,12.9,0,0,0,0-10.1,12.87,12.87,0,0,0,1-8,18.27,18.27,0,0,0-5.35-3.62s1-53-79.74-146.82c0.3,0-230.36,8.31-368.26,104.32" transform="translate(0 -21)"/><g class="cls-15"><g class="cls-19"><path d="M197.13,546.94l93.43-23.28L255,629.62c-1.08,3.19,26.53,68.29,26.53,68.29l21.75,33.8-228.43,50L57.33,739.47Z" transform="translate(0 -21)"/></g></g><g class="cls-15"><g class="cls-20"><path d="M79.35,695.31l4,36.53S82.2,751.8,97,745.71a220.83,220.83,0,0,1,53.63-13.87c-1.65,2.65-68.41,29.51-74,33.83s2.73-70.37,2.73-70.37" transform="translate(0 -21)"/></g></g></g><g class="cls-2"><path class="cls-3" d="M814.1,764.39a97.52,97.52,0,0,1-37.8,19.68,36.45,36.45,0,0,1-25-4Z" transform="translate(0 -21)"/><g class="cls-15"><g class="cls-21"><path d="M151.7,771.48s88.39,137.25,221.22,125.34l1.37,4.56,68.39-10.93a251.51,251.51,0,0,0,53.79,2.21l203.95-80.91a100.57,100.57,0,0,0-3.31-11.9c-4.5-13.17-9.55-33.64-14.36-36-6.85-3-531,7.64-531,7.64" transform="translate(0 -21)"/></g></g><g class="cls-15"><g class="cls-22"><polygon points="258 480.21 246.79 492.02 258 543.12 295.62 532.33 258 480.21"/></g></g><polygon class="cls-23" points="235.72 426.7 833.29 239.74 971.76 693.52 374.21 880.49 235.72 426.7"/><polygon class="cls-24" points="385.03 379.99 833.19 239.75 971.65 693.57 523.5 833.77 385.03 379.99"/><path class="cls-25" d="M563.76,570.76L810,493.6l27.4,88L714.22,620.07l4.38,13.84L663.87,651.1l-4.38-13.84L591.11,658.7ZM600,640l27.34-8.61-13.64-43.9,13.64-4.29,13.7,43.9,13.64-4.29L637,564.67l-54.75,17L600,639.88V640Zm50.17-79.64,22.59,73.25,27.35-8.43-4.51-14.69,27.34-8.58L705,543.19ZM681.54,566l13.64-4.41,9.73,28.53-13.71,4.41Zm37.2-27.68,17.79,58.17,27.34-8.58-13.64-43.63L763.86,540l13.7,43.62,13.64-4.29-13.64-43.51,13.64-4.29L804.91,575l13.7-4.29-17.78-58.17Z" transform="translate(0 -21)"/><polygon class="cls-26" points="565.29 323.67 682.93 286.85 717.55 400.28 599.9 437.07 565.29 323.67"/><g class="cls-15"><g class="cls-27"><path d="M270,560.93a159.13,159.13,0,0,1,61.7,64.28,6.31,6.31,0,0,1,1.35,6.48l10.8,18.59v2.89s25.6,25.49,68.43,107.51S490.4,865.39,490.4,865.39L295.62,772Z" transform="translate(0 -21)"/></g></g></g><g class="cls-28"><path class="cls-4" d="M533.9,901.39L286.72,528.8,163.59,464.1,99.72,500,86,691l48,123.15,81.12,74.37s247,84.93,318.72,12.88" transform="translate(0 -21)"/><g class="cls-6"><g class="cls-29"><path d="M497.24,938.65l7-64S154.73,888.51,140.34,585.18l-59.37,5,20.4,198.75S314.91,968.44,497.24,938.65" transform="translate(0 -21)"/></g></g></g></g></svg>