<?xml version="1.0" encoding="utf-8"?>
<!-- Generator: Adobe Illustrator 16.0.4, SVG Export Plug-In . SVG Version: 6.00 Build 0)  -->
<!DOCTYPE svg PUBLIC "-//W3C//DTD SVG 1.1//EN" "http://www.w3.org/Graphics/SVG/1.1/DTD/svg11.dtd">
<svg version="1.1" id="Layer_1" xmlns="http://www.w3.org/2000/svg" xmlns:xlink="http://www.w3.org/1999/xlink" x="0px" y="0px"
	 width="1080px" height="1080px" viewBox="0 0 1080 1080" enable-background="new 0 0 1080 1080" xml:space="preserve">
<path d="M956.35,637.777c-6.941-53.246-21.843-131.713-53.416-203.152c-22.337-50.542-53.51-97.535-90.254-136.087
	c-5.502-24.425-18.237-68.151-44.452-105.66l-10.588-15.146l-57.321,37.743c-44.285-21.381-90.638-32.218-137.858-32.218
	c-47.221,0-93.574,10.837-137.86,32.218l-57.321-37.743l-10.587,15.147c-26.216,37.511-38.951,81.235-44.452,105.659
	c-36.743,38.55-67.916,85.543-90.255,136.087c-31.573,71.435-46.475,149.904-53.416,203.152
	c-7.519,57.667-7.605,97.987-7.605,99.673l-0.002,6.287l3.752,5.054c26.007,34.988,62.889,64.704,109.622,88.321
	c36.87,18.634,80.036,33.581,128.298,44.427c82.235,18.48,151.827,19.014,159.521,19.014h0.64c7.664,0,77.254-0.533,159.489-19.014
	c48.263-10.846,91.429-25.793,128.299-44.427c46.732-23.616,83.614-53.332,109.623-88.325l3.749-5.049v-6.291
	C963.954,735.752,963.844,695.259,956.35,637.777z M837.953,812.123c-34.813,17.594-75.796,31.757-121.809,42.098
	c-80.652,18.125-150.423,18.333-153.354,18.333l-0.333-0.001l-0.334,0.001c-2.93,0-72.7-0.208-153.353-18.333
	c-46.013-10.341-86.994-24.504-121.809-42.098c-41.725-21.087-74.667-47.194-97.965-77.631
	c0.405-22.455,5.103-167.517,58.596-288.548c21.792-49.31,52.396-94.889,88.506-131.812l1.847-1.888l0.533-2.586
	c2.693-13.058,12.935-56.444,36.317-93.45l37.188,24.485l-7.346,16.59l22.817-11.91c43.286-22.638,88.707-34.117,135.001-34.118
	c46.294,0,91.715,11.479,135.001,34.118l22.817,11.91l-7.346-16.59l37.188-24.485c23.383,37.006,33.624,80.393,36.316,93.45
	l0.533,2.586l1.848,1.888c36.108,36.923,66.714,82.502,88.506,131.812c53.492,121.031,58.189,266.093,58.596,288.548
	C912.62,764.929,879.678,791.036,837.953,812.123z M674.966,799.082c0,30.057-50.37,54.422-112.507,54.422
	c-62.135,0-112.505-24.365-112.505-54.422c0-30.058,50.37-54.423,112.505-54.423C624.596,744.659,674.966,769.024,674.966,799.082z
	 M451.484,733.762c0,12.315-10.019,22.334-22.333,22.334s-22.333-10.019-22.333-22.334c0-12.314,10.019-22.333,22.333-22.333
	S451.484,721.447,451.484,733.762z M719.294,733.762c0,12.315-10.019,22.334-22.333,22.334c-12.313,0-22.332-10.019-22.332-22.334
	c0-12.314,10.019-22.333,22.332-22.333C709.275,711.429,719.294,721.447,719.294,733.762z"/>
</svg>
