<?xml version="1.0" encoding="utf-8"?>
<!-- Generator: Adobe Illustrator 19.2.1, SVG Export Plug-In . SVG Version: 6.00 Build 0)  -->
<!DOCTYPE svg PUBLIC "-//W3C//DTD SVG 1.1//EN" "http://www.w3.org/Graphics/SVG/1.1/DTD/svg11.dtd" [
	<!ENTITY st0 "fill:#DA9B5C;">
	<!ENTITY st1 "opacity:0.05;fill:#010101;enable-background:new    ;">
	<!ENTITY st2 "fill:#E4B486;">
	<!ENTITY st3 "fill:#1C140F;">
	<!ENTITY st4 "fill:#BA7D4B;">
	<!ENTITY st5 "fill:#D6A67F;">
	<!ENTITY st6 "display:none;">
	<!ENTITY st7 "display:inline;fill:#DA9B5C;">
	<!ENTITY st8 "display:inline;fill:#BA7D4B;">
	<!ENTITY st9 "display:inline;opacity:0.05;fill:#010101;enable-background:new    ;">
	<!ENTITY st10 "display:inline;">
	<!ENTITY st11 "display:inline;fill:#D6A67F;">
	<!ENTITY st12 "opacity:0.05;fill:#FFFFFF;enable-background:new    ;">
	<!ENTITY st13 "opacity:0.1;fill:#010101;enable-background:new    ;">
	<!ENTITY st14 "opacity:0.1;">
	<!ENTITY st15 "clip-path:url(#SVGID_2_);fill:#8A5E3E;">
	<!ENTITY st16 "opacity:0.05;clip-path:url(#SVGID_2_);">
	<!ENTITY st17 "clip-path:url(#SVGID_2_);fill:#704D35;">
	<!ENTITY st18 "clip-path:url(#SVGID_4_);fill:#8A5E3E;">
	<!ENTITY st19 "opacity:0.05;clip-path:url(#SVGID_4_);">
	<!ENTITY st20 "clip-path:url(#SVGID_4_);fill:#704D35;">
	<!ENTITY st21 "clip-path:url(#SVGID_6_);fill:#986945;">
	<!ENTITY st22 "opacity:0.1;clip-path:url(#SVGID_6_);">
	<!ENTITY st23 "opacity:0.05;clip-path:url(#SVGID_6_);">
	<!ENTITY st24 "display:none;opacity:0.1;clip-path:url(#SVGID_6_);">
	<!ENTITY st25 "clip-path:url(#arm_2_);fill:#8A5E3E;">
	<!ENTITY st26 "opacity:0.05;clip-path:url(#arm_2_);">
	<!ENTITY st27 "clip-path:url(#SVGID_8_);fill:#A62929;">
	<!ENTITY st28 "opacity:0.1;clip-path:url(#SVGID_8_);">
	<!ENTITY st29 "clip-path:url(#SVGID_10_);fill:#BC3231;">
	<!ENTITY st30 "opacity:0.1;clip-path:url(#SVGID_10_);">
	<!ENTITY st31 "fill:#986945;">
	<!ENTITY st32 "fill:#8A5E3E;">
	<!ENTITY st33 "clip-path:url(#head_1_);fill:#986945;">
	<!ENTITY st34 "opacity:0.05;clip-path:url(#head_1_);">
	<!ENTITY st35 "clip-path:url(#SVGID_12_);fill:#CB3836;">
	<!ENTITY st36 "opacity:0.1;clip-path:url(#SVGID_12_);">
	<!ENTITY st37 "fill:#D84141;">
	<!ENTITY st38 "clip-path:url(#SVGID_14_);fill:#986945;">
	<!ENTITY st39 "opacity:0.05;clip-path:url(#SVGID_14_);">
	<!ENTITY st40 "clip-path:url(#SVGID_14_);fill:#7B5437;">
	<!ENTITY st41 "clip-path:url(#SVGID_16_);fill:#986945;">
	<!ENTITY st42 "clip-path:url(#SVGID_16_);fill:#B78563;">
	<!ENTITY st43 "opacity:0.05;clip-path:url(#SVGID_16_);">
	<!ENTITY st44 "opacity:0.05;">
	<!ENTITY st45 "fill:#7B5437;">
	<!ENTITY st46 "fill:#B07146;">
	<!ENTITY st47 "clip-path:url(#arm_3_);fill:#8A5E3E;">
	<!ENTITY st48 "fill:#BC3231;">
	<!ENTITY st49 "fill:#A62929;">
	<!ENTITY st50 "clip-path:url(#arm_4_);fill:#82583B;">
	<!ENTITY st51 "opacity:0.05;clip-path:url(#arm_4_);">
	<!ENTITY st52 "clip-path:url(#Shirt_7_);fill:#CB3836;">
	<!ENTITY st53 "clip-path:url(#Shirt_7_);fill:#FFFFFF;">
	<!ENTITY st54 "clip-path:url(#Shirt_7_);">
	<!ENTITY st55 "clip-path:url(#head_4_);fill:#986945;">
	<!ENTITY st56 "opacity:0.05;clip-path:url(#head_4_);">
	<!ENTITY st57 "fill:#010101;">
	<!ENTITY st58 "fill:#B78563;">
	<!ENTITY st59 "fill:#FFFFFF;">
	<!ENTITY st60 "fill:#AB3030;">
	<!ENTITY st61 "fill:#7C2323;">
	<!ENTITY st62 "clip-path:url(#head_5_);fill:#986945;">
	<!ENTITY st63 "opacity:0.05;clip-path:url(#head_5_);">
	<!ENTITY st64 "clip-path:url(#SVGID_18_);fill:#8A5E3E;">
	<!ENTITY st65 "opacity:0.05;clip-path:url(#SVGID_18_);">
	<!ENTITY st66 "clip-path:url(#SVGID_20_);fill:#986945;">
	<!ENTITY st67 "opacity:0.05;clip-path:url(#SVGID_20_);">
	<!ENTITY st68 "clip-path:url(#Shirt_8_);fill:#BC3231;">
	<!ENTITY st69 "opacity:0.1;clip-path:url(#Shirt_8_);">
	<!ENTITY st70 "display:none;opacity:0.05;fill:#010101;enable-background:new    ;">
	<!ENTITY st71 "clip-path:url(#arm_7_);fill:#8A5E3E;">
	<!ENTITY st72 "opacity:0.05;clip-path:url(#arm_7_);">
	<!ENTITY st73 "clip-path:url(#SVGID_22_);fill:#A62929;">
	<!ENTITY st74 "opacity:0.1;clip-path:url(#SVGID_22_);">
	<!ENTITY st75 "clip-path:url(#SVGID_24_);fill:#CB3836;">
	<!ENTITY st76 "opacity:0.1;clip-path:url(#SVGID_24_);">
]>
<svg version="1.1" xmlns="http://www.w3.org/2000/svg" xmlns:xlink="http://www.w3.org/1999/xlink" x="0px" y="0px"
	 viewBox="0 0 1015.506 866.096" style="enable-background:new 0 0 1015.506 866.096;" xml:space="preserve">
<g id="Packaging">
	<g id="Layer_5_1_">
		<g>
			<g>
				<g>
					<rect x="0" y="558.061" style="&st0;" width="310.514" height="232.887"/>
					<polygon style="&st1;" points="310.512,674.505 194.07,790.948 310.512,790.948 					"/>
					<rect x="118.382" y="558.061" style="&st2;" width="73.746" height="58.221"/>
					<g id="Page_1_11_">
						<path id="Rectangle_1_11_" style="&st3;" d="M88.078,663.831h134.357v45.146h-67.18v7.254h-29.826v-7.254H88.078V663.831z
							 M95.684,701.313h14.841v-22.552h7.462v22.555h7.396V671.49H95.685L95.684,701.313L95.684,701.313z M132.773,671.354
							l0.09,37.621h14.779v-7.508h14.962v-30.113H132.773L132.773,671.354z M147.464,678.61h7.791v15.314h-7.791V678.61z
							 M170.125,671.354v29.828h14.868v-22.396h7.437v22.396h7.427v-22.307h7.44v22.307h7.438v-29.828H170.125z"/>
					</g>
				</g>
				<g>
					<rect x="230.697" y="558.061" style="&st4;" width="310.514" height="232.887"/>
					<rect x="230.697" y="558.061" style="&st0;" width="232.887" height="232.887"/>
					<polygon style="&st1;" points="541.21,674.505 424.768,790.948 541.21,790.948 					"/>
					<g id="Page_1_10_">
						<path id="Rectangle_1_10_" style="&st3;" d="M275.334,663.831H403.42v45.146h-64.043v7.254h-28.436v-7.254h-35.607
							L275.334,663.831L275.334,663.831z M282.584,701.313h14.148v-22.552h7.112v22.555h7.051V671.49h-28.312L282.584,701.313
							L282.584,701.313z M317.944,671.354l0.084,37.621h14.09v-7.508h14.266v-30.113H317.944L317.944,671.354z M331.947,678.61h7.43
							v15.314h-7.43V678.61z M353.55,671.354v29.828h14.175v-22.396h7.088v22.396h7.08v-22.307h7.097v22.307h7.088v-29.828H353.55z"
							/>
					</g>
					<rect x="308.81" y="558.061" style="&st2;" width="61.134" height="58.221"/>
				</g>
				<g>
					<rect x="533.677" y="564.299" style="&st0;" width="310.514" height="232.887"/>
					<rect x="688.934" y="564.299" style="&st4;" width="155.257" height="232.887"/>
					<g id="Page_1_2_">
						<path id="Rectangle_1_2_" style="&st3;" d="M734.543,670.067h87.332v45.145h-43.668v7.256h-19.385v-7.256h-24.279V670.067z
							 M739.487,707.552h9.646v-22.553h4.847v22.553h4.807v-29.828h-19.3V707.552z M763.595,677.591l0.055,37.621h9.608v-7.504
							h9.725v-30.117H763.595z M773.143,684.847h5.062v15.318h-5.062V684.847z M787.871,677.591v29.828h9.665v-22.393h4.831v22.393
							h4.827v-22.303h4.84v22.303h4.832v-29.828H787.871z"/>
					</g>
					<polygon style="&st1;" points="844.191,680.741 727.749,797.184 844.191,797.184 					"/>
					<rect x="756.86" y="564.299" style="&st5;" width="42.695" height="58.223"/>
				</g>
			</g>
			<g>
				<g>
					<rect x="23.914" y="346.906" style="&st4;" width="281.593" height="211.192"/>
					<rect x="23.914" y="346.906" style="&st0;" width="211.193" height="211.192"/>
					<polygon style="&st1;" points="305.503,452.503 199.908,558.099 305.503,558.099 					"/>
					<g id="Page_1_4_">
						<path id="Rectangle_1_4_" style="&st3;" d="M64.393,442.823h116.155v40.938h-58.079v6.579H96.684v-6.579H64.392
							L64.393,442.823L64.393,442.823z M70.967,476.815h12.831v-20.453h6.448v20.453h6.396v-27.049H70.967L70.967,476.815
							L70.967,476.815z M103.034,449.646l0.077,34.115h12.776v-6.807h12.936v-27.31L103.034,449.646L103.034,449.646z
							 M115.733,456.225h6.736v13.891h-6.736V456.225z M135.324,449.646v27.049h12.855v-20.311h6.427v20.311h6.42v-20.228h6.437
							v20.228h6.429v-27.049H135.324z"/>
					</g>
					<rect x="94.752" y="346.906" style="&st2;" width="55.438" height="52.798"/>
				</g>
				<g>
					<rect x="293.596" y="245.392" style="&st0;" width="161.045" height="120.783"/>
					<rect x="409.347" y="245.392" style="&st4;" width="45.294" height="120.783"/>
					<g id="Page_1_7_">
						<path id="Rectangle_1_7_" style="&st3;" d="M426.294,300.248h21.138v23.413h-10.569v3.763h-4.691v-3.763h-5.877
							L426.294,300.248L426.294,300.248z M427.49,319.688h2.336v-11.697h1.176v11.697h1.162v-15.469h-4.674V319.688z
							 M433.327,304.15l0.013,19.511h2.325v-3.893h2.354v-15.619L433.327,304.15L433.327,304.15z M435.638,307.912h1.225v7.944
							h-1.225V307.912z M439.202,304.15v15.47h2.341v-11.614h1.168v11.614h1.171v-11.567h1.172v11.567h1.168v-15.47H439.202z"/>
					</g>
					<polygon style="&st1;" points="454.641,305.784 394.25,366.175 454.641,366.175 					"/>
					<rect x="431.492" y="245.392" style="&st5;" width="11.071" height="30.196"/>
				</g>
				<g>
					<rect x="238.519" y="365.269" style="&st4;" width="262.848" height="197.137"/>
					<rect x="238.519" y="365.269" style="&st0;" width="131.423" height="197.137"/>
					<g id="Page_1_5_">
						<path id="Rectangle_1_5_" style="&st3;" d="M257.41,454.802h73.928v38.213h-36.965v6.144h-16.406v-6.144H257.41
							L257.41,454.802L257.41,454.802z M261.597,486.532h8.166v-19.093h4.103v19.093h4.068v-25.249h-16.337L261.597,486.532
							L261.597,486.532z M282.005,461.172l0.044,31.846h8.135v-6.354h8.231v-25.491h-16.41V461.172z M290.087,467.312h4.283v12.966
							h-4.283V467.312z M302.553,461.172v25.247h8.182v-18.956h4.09v18.956h4.087V467.54h4.099v18.879h4.089v-25.247H302.553z"/>
					</g>
					<polygon style="&st1;" points="501.367,463.837 402.799,562.406 501.367,562.406 					"/>
					<rect x="276.303" y="365.269" style="&st2;" width="36.142" height="49.282"/>
				</g>
				<g style="&st6;">
					<rect x="452.952" y="332.306" style="&st7;" width="310.516" height="232.884"/>
					<rect x="530.581" y="332.306" style="&st8;" width="232.887" height="232.884"/>
					<polygon style="&st9;" points="763.465,448.748 647.023,565.19 763.465,565.19 					"/>
					<g id="Page_1_6_" style="&st10;">
						<path id="Rectangle_1_6_" style="&st3;" d="M590.743,438.074H718.83v45.145h-64.044v7.255H626.35v-7.255h-35.607V438.074z
							 M597.994,475.558h14.147v-22.555h7.112v22.555h7.051v-29.827h-28.312L597.994,475.558L597.994,475.558z M633.353,445.599
							l0.085,37.62h14.089v-7.505h14.264v-30.115H633.353z M647.357,452.853h7.429v15.315h-7.429V452.853z M668.96,445.599v29.827
							h14.176v-22.394h7.088v22.394h7.078v-22.303h7.099v22.303h7.088v-29.827H668.96z"/>
					</g>
					<rect x="624.219" y="332.306" style="&st11;" width="61.133" height="58.221"/>
				</g>
			</g>
		</g>
		<polygon style="&st12;" points="844.191,564.299 799.555,564.299 756.86,564.299 688.934,564.299 541.211,564.299 
			541.211,558.061 501.367,558.061 501.367,463.837 501.367,365.269 454.641,365.269 454.641,305.784 454.641,245.392 
			442.563,245.392 431.492,245.392 409.347,245.392 293.596,245.392 293.596,346.906 235.107,346.906 150.19,346.906 
			94.752,346.906 23.914,346.906 23.914,558.061 0,558.061 0,790.948 194.07,790.948 230.697,790.948 310.512,790.948 
			310.514,790.948 424.768,790.948 463.584,790.948 533.677,790.948 533.677,797.186 688.934,797.186 844.191,797.186 
			844.191,797.186 844.191,564.299 		"/>
		<polygon style="&st13;" points="439.072,564.299 415.627,564.299 378.325,564.299 297.203,564.299 297.203,558.061 
			254.575,558.061 203.153,558.061 170.516,558.061 169.582,558.061 126.686,558.061 105.506,558.061 65.009,558.061 0,558.061 
			0,790.948 106.573,790.948 126.686,790.948 170.516,790.948 233.26,790.948 254.575,790.948 293.067,790.948 463.584,791.184 
			463.584,680.741 463.584,564.299 		"/>
	</g>
</g>
<g id="Stack">
	<g>
		<rect x="657.175" y="308.455" style="&st0;" width="323.429" height="242.572"/>
		<rect x="738.033" y="308.455" style="&st4;" width="242.572" height="242.572"/>
		<polygon style="&st1;" points="980.605,429.741 859.319,551.027 980.605,551.027 		"/>
		<g id="Page_1_3_">
			<path id="Rectangle_1_3_" style="&st3;" d="M800.697,418.623h133.415v47.023h-66.707v7.556h-29.618v-7.556h-37.089V418.623z
				 M808.249,457.665h14.736v-23.491h7.406v23.491h7.346v-31.067h-29.491L808.249,457.665L808.249,457.665z M845.08,426.46
				l0.089,39.186h14.676v-7.817h14.86V426.46H845.08z M859.666,434.016h7.738v15.955h-7.738V434.016z M882.167,426.46v31.067h14.769
				v-23.325h7.38v23.325h7.372v-23.23h7.39v23.23h7.382V426.46H882.167z"/>
		</g>
		<rect x="835.567" y="308.455" style="&st5;" width="63.675" height="60.643"/>
	</g>
	<g>
		<rect x="660.813" y="549.586" style="&st0;" width="354.692" height="266.019"/>
		<rect x="915.748" y="549.586" style="&st4;" width="99.757" height="266.019"/>
		<g id="Page_1_8_">
			<path id="Rectangle_1_8_" style="&st3;" d="M953.073,670.403h46.553v51.568H976.35v8.286h-10.333v-8.286h-12.944V670.403z
				 M955.705,713.219h5.143v-25.762h2.585v25.762h2.56v-34.07h-10.291v34.07H955.705z M968.56,678.997l0.029,42.973h5.125v-8.573
				h5.183v-34.401H968.56z M973.652,687.284h2.698v17.497h-2.698V687.284z M981.499,678.997v34.07h5.154v-25.58h2.571v25.58h2.571
				v-25.476h2.583v25.476h2.574v-34.07H981.499z"/>
		</g>
		<polygon style="&st1;" points="1015.506,682.595 882.496,815.605 1015.506,815.605 		"/>
		<rect x="964.518" y="549.586" style="&st5;" width="24.385" height="66.505"/>
	</g>
	<g>
		<g id="Box">
			
				<rect x="557.92" y="42.049" transform="matrix(0.9676 -0.2526 0.2526 0.9676 -21.4559 193.2807)" style="&st4;" width="368.446" height="276.334"/>
			
				<rect x="559.413" y="53.681" transform="matrix(0.9676 -0.2526 0.2526 0.9676 -25.8384 182.4029)" style="&st0;" width="276.334" height="276.334"/>
			<polygon style="&st1;" points="920.393,133.688 821.601,302.271 955.289,267.375 			"/>
			<g id="Page_1_9_">
				<path id="Rectangle_1_9_" style="&st3;" d="M611.94,201.112l147.057-38.386l13.529,51.831l-73.528,19.193l2.174,8.329
					l-32.644,8.521l-2.174-8.329l-40.882,10.671L611.94,201.112L611.94,201.112z M631.497,241.973l16.245-4.24l-6.759-25.893
					l8.166-2.132l6.759,25.893l8.095-2.113l-8.939-34.244l-32.506,8.485L631.497,241.973z M663.116,196.981l11.37,43.167
					l16.176-4.222l-2.249-8.616l16.379-4.275l-9.025-34.576L663.116,196.981z M681.368,201.113l8.529-2.226l4.591,17.587
					l-8.529,2.226L681.368,201.113z M703.995,186.31l8.939,34.244l16.276-4.249l-6.711-25.71l8.135-2.123l6.711,25.71l8.128-2.122
					l-6.684-25.606l8.146-2.126l6.684,25.606l8.137-2.124l-8.939-34.244L703.995,186.31z"/>
			</g>
			
				<rect x="626.226" y="59.367" transform="matrix(0.9676 -0.2526 0.2526 0.9676 -2.2399 170.3667)" style="&st2;" width="72.538" height="69.084"/>
		</g>
	</g>
	<path id="Wombat_Shadows" style="&st14;" d="M885.405,449.456c-3.655,0.293-13.232,9.647-15.79,12.269
		c14.359-39.257-0.027-74.669-29.572-95.351c-5.287-8.708-9.59-13.734-9.59-13.734c0.704-1.511-0.505-2.032-0.761-3.038
		c-3.998-15.76-8.192-29.012-12.368-40.147l-9.998,0.001c-0.376-0.985-0.825-2.193-1.2-3.144l9.067-2.363
		c-0.961-2.407-1.92-4.705-2.873-6.899c19.389-7.168,34.347-18.294,34.882-19.072c0.393-0.572,0.391-1.573,0.364-2.041
		c1.854-1.564,4.601-4.019,6.4-5.646v-0.001c6.175-5.713,11.652-12.31,18.068-20.039c8.013-9.655,44.657-93.753,21.872-149.005
		c-14.698,7.35-20.751,17.754-36.551,29.212c0.214-2.57,0.219-3.996,0.219-3.996s-10.288-25.744-55.013-65.378
		c-11.387-10.09-29.9-17.624-44.752-24.413v779.613c12.573-0.161,44.993-1.897,44.993-1.897s6.479,1.235,6.666,1.218l10.659,0.011
		c2.01-1.042,3.883-1.444,5.512-3.158c41.444-14.539,49.065-68.058,6.797-89.291c-0.122-2.887-0.298-5.833-0.53-8.835
		c0.483-0.072,0.755-0.113,0.755-0.113s-1.097-31.039-9.479-57.651c27.088-12.253,42.771-44.214,38.595-42.126
		c1.245-2.249,1.732-3.173,2.279-4.173l0,0c14.523-26.912,26.795-89.451,8.456-132.302l2.962-4.622
		c-0.088-0.231-0.184-0.461-0.286-0.69C881.181,463.477,888.298,449.224,885.405,449.456z"/>
</g>
<g id="Stacking_Wombat">
	<g id="Stacking_Wombats_1_">
		<g id="Top_Wombat_3_">
			<g id="Top_Wombat_4_">
				<g id="Bottom_1_">
					<g id="Left_Leg_4_">
						<defs>
							<path id="SVGID_1_" d="M571.891,375.554c-1.388,0.68-55.298,26.216-34.666,82.548c0,0-11.632-11.936-15.79-12.269
								c-4.158-0.333,12.369,29.277,16.505,30.692c3.264,1.117,27.194-1.185,48.437-7.199c5.678-1.608,8.496-2.769,13.865-5.052
								L571.891,375.554z"/>
						</defs>
						<clipPath id="SVGID_2_">
							<use xlink:href="#SVGID_1_"  style="overflow:visible;"/>
						</clipPath>
						
							<ellipse transform="matrix(0.9843 -0.1765 0.1765 0.9843 -66.7173 107.2227)" style="&st15;" cx="569.353" cy="428.637" rx="72.607" ry="74.72"/>
						<path style="&st16;" d="M577.174,363.537l-32.206,34.102c0,0-23.701,50.182,15.538,92.712l40.97-21.617L577.174,363.537z"/>
						<path style="&st17;" d="M514.882,437.025l11.71,3.728c0,0,15.917,22.058,20.129,42.125
							c-2.947-1.039-17.888-2.258-17.888-2.258L514.882,437.025z"/>
					</g>
					<g id="Right_Leg_4_">
						<defs>
							<path id="SVGID_3_" d="M822.323,361.339c1.388,0.68,61.588,33.964,37.292,100.386c0,0,11.632-11.936,15.79-12.269
								s-12.369,29.277-16.505,30.692c-3.264,1.117-27.194-1.185-48.437-7.199c-5.678-1.608-8.496-2.769-13.865-5.052
								L822.323,361.339z"/>
						</defs>
						<clipPath id="SVGID_4_">
							<use xlink:href="#SVGID_3_"  style="overflow:visible;"/>
						</clipPath>
						
							<ellipse transform="matrix(0.1765 -0.9843 0.9843 0.1765 255.9585 1170.4595)" style="&st18;" cx="827.487" cy="432.26" rx="74.72" ry="72.607"/>
						<path style="&st19;" d="M806.08,362.631l23.962,3.742c0,0,50.245,54.507,8.108,114.047l-56.373-12.593L806.08,362.631z"/>
						<path style="&st20;" d="M881.958,440.648l-11.71,3.728c0,0-15.917,22.058-20.129,42.125
							c2.947-1.039,17.888-2.258,17.888-2.258L881.958,440.648z"/>
					</g>
					<g id="Body">
						<defs>
							<path id="SVGID_5_" d="M771.427,252.693c28.156,22.768,49.026,99.947,49.026,99.947s54.767,63.947,13.598,131
								c0,0-215.166,8.377-279.751-5.887c0,0-36.036-66.6,18.502-144.491c14.193-20.27,15.054-50.637,30.173-78.98
								C602.975,254.282,743.271,229.925,771.427,252.693z"/>
						</defs>
						<clipPath id="SVGID_6_">
							<use xlink:href="#SVGID_5_"  style="overflow:visible;"/>
						</clipPath>
						
							<rect x="516.311" y="211.079" transform="matrix(-1 -1.224647e-16 1.224647e-16 -1 1377.8319 727.6613)" style="&st21;" width="345.209" height="305.503"/>
						<path style="&st22;" d="M521.18,347.186c0,0,105.655-54.105,224.784-4.401c0,0-79.425-45.995-171.767-24.112L521.18,347.186z"
							/>
						<path style="&st23;" d="M770.934,228.49l0.493,24.203c0,0,21.346,62.437,18.929,99.947c0,0,30.425,90.034-5.182,117.161
							s40.803,21.053,40.803,21.053l47.606-40.797l-9.569-90.595L770.934,228.49z"/>
						<path style="&st24;" d="M842.255,496.116c-7.187-24.76-19.909-48.4-37.136-68.229c-1.537-7.282-3.815-15.125-7.192-22.565
							l-10.923,4.597c-19.921-16.975-43.968-29.321-71.144-34.376c-27.172-5.054-54.046-2.183-78.736,6.49l-8.532-8.21
							c-5.82,5.722-10.762,12.213-14.812,18.449c-23.218,12.309-43.602,29.8-59.22,50.329
							c-36.182,47.561-41.277,74.813-41.277,74.813s19.749,98.787,153.193,123.61c36.093,6.714,66.368,5.385,91.335-0.123
							c67.343-14.856,96.058-60.133,96.058-60.133S858.914,553.507,842.255,496.116z"/>
					</g>
					<g id="Shadow_8_">
						<polygon style="&st14;" points="849.385,462.022 850.993,458.347 819.304,471.985 822.662,486.084 						"/>
						<path style="&st14;" d="M850.993,458.347c0,0,11.441,6.999,14.481,14.998l-4.837,7.548l-11.252-4.418L850.993,458.347"/>
					</g>
				</g>
				<g id="Top_1_">
					<g id="Arm_2_">
						<g id="Arm_3_">
							<defs>
								<path id="arm_14_" d="M755.454,208.106c0,0,79.96-77.612,138.454-106.862c22.785,55.252-23.859,139.351-31.872,149.005
									c-22.262,26.819-33.194,40.02-101.338,49.865C687.594,267.598,755.454,208.106,755.454,208.106z"/>
							</defs>
							<clipPath id="arm_2_">
								<use xlink:href="#arm_14_"  style="overflow:visible;"/>
							</clipPath>
							<path style="&st25;" d="M888.3,87.571L721.358,221.614l-22.839,61.275l20.195,27.837l88.916-4.669l54.121-29.425
								l29.683-42.154C891.435,234.478,925.669,117.009,888.3,87.571z"/>
							<path style="&st26;" d="M898.61,100.035l-4.703,1.21c0,0,1.237,161.766-138.127,185.605l5.727,27.487l90.534-21.029
								C852.041,293.308,922.757,183.609,898.61,100.035z"/>
						</g>
						<g id="Sleeve_1_">
							<g>
								<defs>
									<path id="SVGID_7_" d="M772.636,192.712l9.859-7.495c0,0,61.499,33.482,61.472,85.073c0,0-6.879,6.237-8.181,7.053
										C835.787,277.343,819.324,214.036,772.636,192.712z"/>
								</defs>
								<clipPath id="SVGID_8_">
									<use xlink:href="#SVGID_7_"  style="overflow:visible;"/>
								</clipPath>
								<path style="&st27;" d="M772.636,192.712l9.859-7.495c0,0,61.499,33.482,61.472,85.073c0,0-6.879,6.237-8.181,7.053
									C835.787,277.343,819.324,214.036,772.636,192.712z"/>
								<path style="&st28;" d="M840.465,244.555c0,0-10.055,11.693-15.055,13.693s5,20.024,5,20.024l5.157,1.05l12.009-5.573
									L840.465,244.555z"/>
							</g>
							<g>
								<defs>
									<path id="SVGID_9_" d="M776.299,190.319c0,0,57.189,34.255,61.248,85.364c0,0,0.181,1.53-0.344,2.294
										c-1.158,1.684-69.929,51.909-104.934,5.333s41.323-92.477,41.323-92.477S775.121,189.63,776.299,190.319z"/>
								</defs>
								<clipPath id="SVGID_10_">
									<use xlink:href="#SVGID_9_"  style="overflow:visible;"/>
								</clipPath>
								<path style="&st29;" d="M776.299,190.319c0,0,57.189,34.255,61.248,85.364c0,0,0.181,1.53-0.344,2.294
									c-1.158,1.684-69.929,51.909-104.934,5.333s41.323-92.477,41.323-92.477S775.121,189.63,776.299,190.319z"/>
								<path style="&st30;" d="M833.66,248.998c0,0-23.5,22.75-55,30.75s9.67,28.25,9.67,28.25l38.58-15l15.461-16.834
									L833.66,248.998z"/>
							</g>
						</g>
					</g>
					<g id="Head">
						<path id="Shadow_5_" style="&st14;" d="M847.358,130.457c0,0-8.407,127.236-95.781,147.815l-36-69.274L847.358,130.457z"/>
						<g id="npm_-_wombat_-_face_2_">
							<g id="ears_3_">
								<g id="ear_6_">
									<path style="&st31;" d="M541.461,67.914l27.103,5.58l-1.561,28.503l-25.565,19.17
										C541.438,121.166,535.428,93.593,541.461,67.914z"/>
									<polygon style="&st32;" points="568.21,79.965 568.564,73.494 541.461,67.914 557.911,91.598 									"/>
								</g>
							</g>
							<g>
								<defs>
									<path id="head_7_" d="M520.727,169.422c5.203-59.532,40.718-118.951,100.589-142.813
										c59.872-23.861,126.521-5.159,171.247,34.474c44.726,39.634,55.013,65.378,55.013,65.378s-0.199,100.742-126.287,150.993
										s-195.525-22.737-195.525-22.737S515.523,228.954,520.727,169.422z"/>
								</defs>
								<clipPath id="head_1_">
									<use xlink:href="#head_7_"  style="overflow:visible;"/>
								</clipPath>
								<path id="head_8_" style="&st33;" d="M520.727,169.422c5.203-59.532,40.718-118.951,100.589-142.813
									c59.872-23.861,126.521-5.159,171.247,34.474c44.726,39.634,55.013,65.378,55.013,65.378s-0.199,100.742-126.287,150.993
									s-195.525-22.737-195.525-22.737S515.523,228.954,520.727,169.422z"/>
								<path style="&st34;" d="M516.524,255.378l9.24-0.66c0,0,71.145,41.439,160.366,3.22s161.446-131.477,161.446-131.477
									l5.617,17.276l-34.411,91.43l-127.059,61.596c0,0-136.228,6.531-136.826,5.702S516.524,255.378,516.524,255.378z"/>
							</g>
							<g id="ear_5_">
								<path style="&st31;" d="M701.462,4.146l-15.836,22.693l20.738,19.616l31.744-3.67
									C738.108,42.785,723.504,18.636,701.462,4.146z"/>
								<polygon style="&st32;" points="690.334,31.294 685.626,26.839 701.462,4.146 705.812,32.653 								"/>
							</g>
						</g>
					</g>
					<g id="npm_shirt">
						<path id="Shadow_7_" style="&st14;" d="M587.91,310.498c-0.75,1-21.242,32.08-21.242,32.08s35.242-16.04,83.242-16.04
							s118.416,24.353,124.708,26.367c6.292,2.014,1.478-21.204,1.478-21.204L587.91,310.498z"/>
						<g>
							<defs>
								<path id="SVGID_11_" d="M596.431,268.698c0,0,78.512-38.81,174.996-16.005c0,0,26.923,12.782,48.265,96.908
									c0.254,1.003,1.468,1.522,0.761,3.038c0,0-18.543,7.701-39.543,2.28c-21-5.421-123.984-56.761-214.242-12.341
									c0,0-0.575-2.414,0-4.247c0.575-1.833,5.703-6.501,6.242-7.667c0,0-1.5-1.5-0.833-2.167s2.167-0.833,2.833-2.333
									c0.667-1.5,9.833-20.667,11.5-28.5C588.077,289.831,595.088,269.331,596.431,268.698z"/>
							</defs>
							<clipPath id="SVGID_12_">
								<use xlink:href="#SVGID_11_"  style="overflow:visible;"/>
							</clipPath>
							<path style="&st35;" d="M596.431,268.698c0,0,78.512-38.81,174.996-16.005c0,0,29.569,13.088,51.026,99.947
								c0,0-20.543,7.701-41.543,2.28c-21-5.421-123.984-56.761-214.242-12.341c0,0-0.575-2.414,0-4.247
								c0.575-1.833,5.703-6.501,6.242-7.667c0,0-1.5-1.5-0.833-2.167s2.167-0.833,2.833-2.333c0.667-1.5,9.833-20.667,11.5-28.5
								C588.077,289.831,595.088,269.331,596.431,268.698z"/>
							<path style="&st36;" d="M770.526,260.579c0,0,21.891,37.419,17.804,47.419s-21.892,14.667-3.156,20.333
								c18.736,5.667,29.069,18,20.069,19s-46-13.667-59.333-14.333c-13.333-0.667,37.892,18.95,44.446,19.642
								s30.554,1.358,40.221-5.975c9.667-7.333-37.667-88-37.667-88L770.526,260.579z"/>
							<path style="&st36;" d="M572.243,322.998c0.667-1,72-41.333,150.667-15.667c0,0-56.333-13.333-148,18.833
								s-14.404,8.167-14.404,8.167l12.404-3.667c0,0,90.333-40.767,184-0.667c0,0-97.333-32.799-193.667,6.434l-42.063,10.755
								c0,0,10.397-16.855,11.73-16.855C534.243,330.331,572.243,322.998,572.243,322.998z"/>
							<path id="Collar_3_" style="&st36;" d="M589.243,271.664l-3.333,17c0,0,22.412-26.333,76.206-30.333
								c53.794-4,127.794,9.667,127.794,9.667l-13.814-15.943c0,0-57.774-12.391-110.98-8.724
								C611.91,246.998,589.243,271.664,589.243,271.664z"/>
						</g>
						<path id="Shadow_6_" style="&st14;" d="M590.91,269.748l-1.667-1.083c0,0,16.917-24.607,65.417-29.012
							s112.121,6.46,121.436,9.402l-121.936,5.126L590.91,269.748z"/>
						<path id="Collar_4_" style="&st37;" d="M589.243,268.664l-3.333,17c0,0,22.412-26.333,76.206-30.333
							c53.794-4,127.794,9.667,127.794,9.667l-13.814-15.943c0,0-57.774-12.391-110.98-8.724
							C611.91,243.998,589.243,268.664,589.243,268.664z"/>
					</g>
				</g>
				<path id="Shadow_9_" style="&st14;" d="M831.382,476.88c-5.139-23.882-9.038-30.108-26.265-49.937
					c-1.537-7.282-3.814-15.124-7.191-22.564l-10.923,4.597c-19.921-16.975-43.968-29.321-71.144-34.376
					c-27.172-5.054-54.046-2.183-78.736,6.49l-8.532-8.21c-5.82,5.722-10.76,12.212-14.81,18.448
					c-23.219,12.309-58.871,47.67-65.308,68.539C530.859,516.972,843.953,535.303,831.382,476.88z"/>
			</g>
		</g>
		<g id="Booster_-_Wombat_2_">
			<g id="Bottom">
				<g id="Left_Leg_1_">
					<defs>
						<path id="SVGID_13_" d="M546.328,717.102c-1.486,0.425-59.058,16.044-48.691,75.133c0,0-9.343-13.801-13.377-14.863
							c-4.034-1.062,7.007,31,10.829,33.123c3.016,1.675,26.976,3.633,48.947,1.463c5.873-0.58,8.852-1.226,14.539-2.525
							L546.328,717.102z"/>
					</defs>
					<clipPath id="SVGID_14_">
						<use xlink:href="#SVGID_13_"  style="overflow:visible;"/>
					</clipPath>
					<ellipse style="&st38;" cx="534.461" cy="768.905" rx="72.607" ry="74.72"/>
					<path style="&st39;" d="M567.821,704.147l-36.736,12.956c0,0-28.668,53.401,2.449,102.189l39.64-7.31L567.821,704.147z"/>
					<path style="&st40;" d="M479.364,767.546l10.868,5.736c0,0,11.774,24.521,12.378,45.017c-2.717-1.543-17.208-5.38-17.208-5.38
						L479.364,767.546z"/>
				</g>
				<g id="Body_4_">
					<defs>
						<path id="SVGID_15_" d="M605.813,591.885c-28.156,22.768-48.699,94.36-48.699,94.36s-58.686,60.202-13.078,125.714
							c0,0,199.371,14.264,263.955,0c0,0,44.929-90.339-22.464-216.678C785.527,595.281,633.969,569.117,605.813,591.885z"/>
					</defs>
					<clipPath id="SVGID_16_">
						<use xlink:href="#SVGID_15_"  style="overflow:visible;"/>
					</clipPath>
					<rect x="498.428" y="541.777" style="&st41;" width="345.209" height="305.503"/>
					<path style="&st42;" d="M488.894,725.413c0,0,25.979-23.094,68.219-39.169c44.398-16.896,106.736-26.109,174.625,4.428
						c132.479,59.59-34.249,175.423-34.249,175.423L545.298,846.32L488.894,725.413z"/>
					<path style="&st43;" d="M792.426,627.615c0,0,14.484,94.646-2.263,124.081l41.217-29.435c0,0-18.436-87.4-25.294-98.269
						L792.426,627.615z"/>
				</g>
				<g id="Right_Leg_1_">
					<path style="&st31;" d="M743.274,744.433c0.001-0.001,0.001-0.001,0.002-0.002c9.112-16.464,28.497-27.831,50.939-27.831
						c31.196,0,56.484,21.961,56.484,49.051c0,23.803-19.365,45.32-44.653,49.214s-74.62,3.487-74.62,3.487
						C719.31,809.491,732.911,762.843,743.274,744.433z"/>
					<g id="shadow_2_" style="&st44;">
						<path d="M794.215,815.545c70.802-41.882,11.939-97.828,11.919-97.847c25.471,4.752,44.565,24.415,44.565,47.954
							c0,23.803-19.365,45.32-44.653,49.214c-3.926,0.605-8.432,1.105-13.243,1.52C793.265,816.109,793.733,815.83,794.215,815.545z
							"/>
						<ellipse transform="matrix(0.5 -0.866 0.866 0.5 -285.9689 1095.4296)" cx="805.699" cy="795.375" rx="19.797" ry="17.702"/>
					</g>
					<g>
						
							<ellipse transform="matrix(0.5 -0.866 0.866 0.5 -290.6325 1095.5082)" style="&st45;" cx="803.436" cy="799.453" rx="19.797" ry="17.701"/>
						
							<ellipse transform="matrix(0.5 -0.866 0.866 0.5 -295.2753 1095.502)" style="&st46;" cx="801.109" cy="803.471" rx="12" ry="10.729"/>
					</g>
				</g>
			</g>
			<g id="Top">
				<g id="npm_shirt_1_">
					<g id="Right_Arm">
						<g>
							<defs>
								<path id="arm_9_" d="M729.315,589.454c0,0,65.184-86.818,121.678-131.108c39.187,49.986,12.149,134.929,5.866,146.694
									c-17.457,32.682-26.021,48.763-98.084,75.915C647.902,722.73,729.315,589.454,729.315,589.454z"/>
							</defs>
							<clipPath id="arm_3_">
								<use xlink:href="#arm_9_"  style="overflow:visible;"/>
							</clipPath>
							<path id="arm_10_" style="&st47;" d="M729.315,589.454c0,0,65.184-86.818,121.678-131.108
								c39.187,49.986,12.149,134.929,5.866,146.694c-17.457,32.682-26.021,48.763-98.084,75.915
								C647.902,722.73,729.315,589.454,729.315,589.454z"/>
						</g>
						<g id="Sleeve_3_">
							<path style="&st48;" d="M833.113,604.89c0,0,13.53,8.664,18.664,9.553c0,0,1.534-0.778,0,3.055
								c-1.534,3.833-16.534,31.833-43.867,41.167l-23.333-21.667l36.333-32.108H833.113z"/>
							<path style="&st49;" d="M834.66,600.248c0,0,14.043,8.668,19.396,10.021l-2.28,4.173c0,0-9.742-1.75-17.117-7.097
								C827.285,601.998,834.66,600.248,834.66,600.248z"/>
						</g>
						<path id="head_6_" style="&st44;" d="M847.236,513.325c-8.789-30.276-25.846-58.883-49.305-80.887
							c-21.01-19.707-259.918,200.972-126.474,225.794s187.393-60.256,187.393-60.256S863.895,570.715,847.236,513.325z"/>
					</g>
					<g id="Left_arm">
						<g id="arm_1_">
							<defs>
								<path id="arm_5_" d="M634.071,565.271c0,0-94.501-75.074-96.429-61.876c0,0-23.469,53.387,18.401,118.018
									C620.461,720.851,634.071,565.271,634.071,565.271z"/>
							</defs>
							<clipPath id="arm_4_">
								<use xlink:href="#arm_5_"  style="overflow:visible;"/>
							</clipPath>
							<path id="arm_6_" style="&st50;" d="M634.071,565.271c0,0-94.501-75.074-96.429-61.876c0,0-23.469,53.387,18.401,118.018
								C620.461,720.851,634.071,565.271,634.071,565.271z"/>
							<path style="&st51;" d="M513.282,547.008c0,0,30.085,73.815,93.484,90.117l8.604-90.117l-19.473-56.155l-90.117,12.99
								L513.282,547.008z"/>
						</g>
						<g id="Sleeve_2_">
							<path style="&st48;" d="M574.16,590.623c0,0-13.412,9.69-29.206,10.94c0,0-0.25-0.548,0,2.31
								c0.25,2.858,17.512,37.375,28.859,41.875l17.347-31v-25.5L574.16,590.623z"/>
							<path style="&st49;" d="M571.285,586.873c0,0-18.014,7.401-29.007,8.7c0,0,1.47,4.555,2.676,5.99
								c0,0,13.265-0.19,29.206-9.065L571.285,586.873z"/>
						</g>
						<path id="Shadow_4_" style="&st44;" d="M537.577,569.664c0,0,17.415,50.542,43.333,64l10.25-32L537.577,569.664z"/>
					</g>
					<path id="Shirt_3_" style="&st14;" d="M584.577,616.998c0,0-25.667,52.195-29.667,68.598c0,0-4.18,0.277-4.257,2.673
						s-0.077,2.396-0.077,2.396s-1.013,0.792-2.292,4.458c-1.279,3.667-2.763,6.123-2.763,6.123s39.388-11.914,92.721-11.914
						c53.333,0,115.551,31.575,133.276,31.787s50.143-6.9,50.143-6.9s-1.021-55.221-20.553-80.888
						C801.109,633.331,736.243,586.998,584.577,616.998z"/>
					<g id="Shirt">
						<defs>
							<path id="Shirt_2_" d="M584.577,614.998c0,0-25.667,52.195-29.667,68.598c0,0-4.18,0.277-4.257,2.673
								s-0.077,2.396-0.077,2.396s-3.775,1.333-5.054,5s0,7.581,0,7.581s39.388-13.914,92.721-13.914
								c53.333,0,115.551,31.575,133.276,31.787s51.143-4.9,51.143-4.9s-2.021-57.221-21.553-82.888
								C801.109,631.331,736.243,584.998,584.577,614.998z"/>
						</defs>
						<clipPath id="Shirt_7_">
							<use xlink:href="#Shirt_2_"  style="overflow:visible;"/>
						</clipPath>
						<path id="Shirt_1_" style="&st52;" d="M584.577,614.998c0,0-25.667,52.195-29.667,68.598c0,0-4.18,0.277-4.257,2.673
							s-0.077,2.396-0.077,2.396s-3.775,1.333-5.054,5s0,7.581,0,7.581s39.388-13.914,92.721-13.914
							c53.333,0,115.551,31.575,133.276,31.787s51.143-4.9,51.143-4.9s-2.021-57.221-21.553-82.888
							C801.109,631.331,736.243,584.998,584.577,614.998z"/>
						<path id="npm" style="&st53;" d="M720.194,663.608l26.143,2.492l-0.837,8.784l-13.072-1.246l-0.135,1.411l-5.804-0.553
							l0.135-1.411l-7.268-0.693L720.194,663.608z M720.978,671.043l2.888,0.275l0.418-4.388l1.452,0.138l-0.418,4.389l1.439,0.137
							l0.553-5.804l-5.779-0.551L720.978,671.043L720.978,671.043z M728.751,665.901l-0.68,7.322l2.876,0.274l0.139-1.461
							l2.911,0.278l0.559-5.859L728.751,665.901L728.751,665.901z M731.475,667.586l1.516,0.145l-0.284,2.98l-1.516-0.145
							L731.475,667.586z M736.019,666.594l-0.553,5.804l2.893,0.276l0.415-4.358l1.447,0.138l-0.415,4.358l1.445,0.138l0.414-4.341
							l1.448,0.138l-0.414,4.341l1.447,0.138l0.553-5.804L736.019,666.594z"/>
						<g id="Shadow_3_" style="&st54;">
							<path style="&st14;" d="M794,645.748c0,0,8.244,35.045,1.91,43.314c-6.333,8.269,0.731,7.482,5.199,11.376
								s-32.532,3.107-41.865,0c-9.333-3.107,14.607,9.893,30.803,7.893c16.197-2-20.416,9.835-39.776,5.584
								c-19.36-4.251,38.801,17.193,62.387,11.138c23.586-6.055,16.849-11.518,16.849-11.518l-10.988-71.988L794,645.748z"/>
							<path id="Shadow_2_" style="&st14;" d="M568.001,682.741c0,0,72.566-26.393,163.737,11.932c0,0-61.829-31.156-117.329-29.666
								c0,0,16.369,2.666,28.185,5.578C642.595,670.586,599.896,668.13,568.001,682.741z"/>
						</g>
					</g>
					<polygon id="Neck" style="&st31;" points="666.41,622.522 646.618,643.498 672.035,656.095 703.41,651.998 					"/>
				</g>
				<g id="Head_1_">
					<g id="ears_6_">
						<g id="ear_12_">
							<path style="&st31;" d="M797.926,414.379l-25.504,10.734l7.064,27.658l28.8,13.843
								C808.286,466.615,808.829,438.399,797.926,414.379z"/>
							<polygon style="&st32;" points="774.025,431.394 772.422,425.114 797.926,414.379 786.387,440.806 							"/>
						</g>
						<g id="ear_11_">
							<path style="&st31;" d="M628.591,382.88l19.94,19.188l-16.536,23.268l-31.853,2.561
								C600.141,427.897,609.78,401.373,628.591,382.88z"/>
							<polygon style="&st32;" points="644.777,407.351 648.53,402.068 628.591,382.88 629.857,411.689 							"/>
						</g>
					</g>
					<g>
						<defs>
							<path id="head_9_" d="M842.255,505.173c-16.66-57.39-63.032-108.786-126.396-120.573
								c-63.364-11.786-125.116,19.496-161.299,67.057c-36.182,47.561-41.277,74.813-41.277,74.813s19.749,98.787,153.193,123.61
								s187.393-60.256,187.393-60.256S858.914,562.564,842.255,505.173z"/>
						</defs>
						<clipPath id="head_4_">
							<use xlink:href="#head_9_"  style="overflow:visible;"/>
						</clipPath>
						<path id="head_10_" style="&st55;" d="M842.255,505.173c-16.66-57.39-63.032-108.786-126.396-120.573
							c-63.364-11.786-125.116,19.496-161.299,67.057c-36.182,47.561-41.277,74.813-41.277,74.813s19.749,98.787,153.193,123.61
							s187.393-60.256,187.393-60.256S858.914,562.564,842.255,505.173z"/>
						<path style="&st56;" d="M485.45,508.082l27.833,18.389c0,0,68.577,123.487,244.528,123.487
							c149.845,0-268.44,27.511-268.44,27.511L485.45,508.082z"/>
					</g>
					<g id="nose_13_">
						
							<ellipse id="nose_15_" transform="matrix(0.1829 -0.9831 0.9831 0.1829 66.662 1096.3693)" style="&st32;" cx="692.889" cy="508.082" rx="24.646" ry="50.948"/>
						
							<ellipse id="nose_14_" transform="matrix(0.1829 -0.9831 0.9831 0.1829 71.9822 1093.3966)" style="&st57;" cx="693.761" cy="503.395" rx="24.645" ry="50.948"/>
					</g>
					<g id="face_5_">
						<g id="eyes_4_">
							<g id="eye_10_">
								<path style="&st58;" d="M647.366,471.829c-1.12,6.022-6.91,9.995-12.932,8.875c-6.022-1.12-9.997-6.909-8.877-12.931
									c1.12-6.023,6.91-9.996,12.933-8.875C644.513,460.017,648.487,465.805,647.366,471.829z"/>
								<g>
									
										<ellipse transform="matrix(0.1829 -0.9831 0.9831 0.1829 61.7914 1010.6873)" style="&st57;" cx="638.909" cy="468.171" rx="8.302" ry="8.302"/>
									<path style="&st59;" d="M642.636,466.761c-0.648,3.486-5.926,2.508-5.277-0.982
										C638.008,462.293,643.285,463.271,642.636,466.761z"/>
								</g>
							</g>
							<g id="eye_9_">
								<path style="&st58;" d="M748.936,490.722c-1.12,6.022,2.854,11.811,8.876,12.931c6.021,1.12,11.812-2.852,12.932-8.875
									c1.12-6.023-2.855-11.812-8.876-12.932C755.846,480.727,750.057,484.699,748.936,490.722z"/>
								<g>
									
										<ellipse transform="matrix(0.1829 -0.9831 0.9831 0.1829 137.4142 1146.0323)" style="&st57;" cx="758.142" cy="490.35" rx="8.302" ry="8.302"/>
									<path style="&st59;" d="M760.45,488.676c-0.649,3.487-5.927,2.509-5.278-0.982
										C755.821,484.207,761.099,485.185,760.45,488.676z"/>
								</g>
							</g>
						</g>
					</g>
				</g>
				<g id="Collar_2_">
					<g id="Shadow_1_">
						<path style="&st14;" d="M808.192,647.671c0,0-19.675,21.831-104.782,19.914l-5.579-7.088l-1.09,5.403
							c0,0-12.04-10.065-24.706-9.806l18.597-2.785l93.945-2.771L808.192,647.671z"/>
						<path id="Shadow" style="&st14;" d="M578.243,626.998l-0.833,3c0,0,36.333,26.361,62.5,26.097l5-5.764l2.833,4.288
							c0,0,13.76-5.757,23.294,0.956l-22.578-14.028L578.243,626.998z"/>
					</g>
					<g id="Collar_1_">
						<g id="Collar">
							<path style="&st60;" d="M682.723,653.81c0,0-4,15.375-4,16.812l-9.688-2l3-12.528l5.562-2.785L682.723,653.81z"/>
							<circle id="Button" style="&st61;" cx="676.139" cy="662.727" r="2.229"/>
						</g>
						<path style="&st48;" d="M672.035,656.095c0,0,5.438-8.375,16.875-8.424l7.831,7.026l-1.018,7.05
							C695.723,661.748,685.785,652.442,672.035,656.095z"/>
						<path style="&st48;" d="M650.629,639.248l1.948-0.75c0,0,14.917,4.861,19.458,17.597c0,0-18.292-9.93-24.292-5.264l-4.167-6.5
							L650.629,639.248z"/>
						<g>
							<g>
								<path style="&st37;" d="M569.964,624.691c5.428,4.395,11.751,7.878,17.939,11.047c16.269,8.332,33.83,13.856,51.769,17.203
									c1.063,0.198,6.178-6.254,7.019-7.124c0.822-0.851,5.84-7.456,6.875-7.263c-17.94-3.347-35.5-8.872-51.769-17.203
									c-6.188-3.169-12.511-6.651-17.939-11.047C583.291,609.847,570.297,624.961,569.964,624.691L569.964,624.691z"/>
							</g>
						</g>
						<g>
							<g>
								<path style="&st37;" d="M802.589,632.177c-9.742,4.872-20.643,7.928-31.178,10.456c-26.959,6.47-54.944,7.787-82.478,4.916
									c0.237,0.025,2.155,2.258,2.021,2.121c1.647,1.686,3.313,3.354,4.979,5.021c1.667,1.667,3.335,3.332,5.021,4.979
									c0.423,0.413,1.576,1.964,2.121,2.021c27.534,2.872,55.519,1.554,82.478-4.916c10.536-2.529,21.436-5.583,31.178-10.456
									c-0.327,0.164-6.409-6.55-7-7.142C809.089,638.535,803.236,631.853,802.589,632.177L802.589,632.177z"/>
							</g>
						</g>
					</g>
				</g>
			</g>
		</g>
	</g>
</g>
<g id="Box_Holdin_x27__Wombat_1_">
	<g id="Box_Holdin_x27__Wombat">
		<g id="npm_-_wombat_-_face">
			<g id="ears_2_">
				<g id="ear_4_">
					<path style="&st31;" d="M231.465,354.816l-16.575,19.826l17.7,19.933l29.829-0.836
						C262.42,393.738,250.795,370.086,231.465,354.816z"/>
					<polygon style="&st32;" points="218.909,379.167 214.89,374.641 231.465,354.816 233.197,381.689 					"/>
				</g>
				<g id="ear_1_">
					<path style="&st31;" d="M77.433,401.147l24.763,7.392l-3.767,26.39l-25.342,15.759
						C73.087,450.688,69.735,424.548,77.433,401.147z"/>
					<polygon style="&st32;" points="101.341,414.531 102.195,408.539 77.433,401.147 90.814,424.517 					"/>
				</g>
			</g>
			<g id="head_x5C_">
				<defs>
					<path id="head_3_" d="M319.46,424.428c-40.389-47.148-110.15-66.904-167.788-49.568
						c-57.638,17.337-86.082,70.674-93.76,132.281c-7.677,61.607,10.53,116.809,10.53,116.809
						c61.561,45.783,173.826,21.718,173.826,21.718s107.971-67.705,134.06-139.852C376.328,505.817,359.85,471.577,319.46,424.428z"
						/>
				</defs>
				<clipPath id="head_5_">
					<use xlink:href="#head_3_"  style="overflow:visible;"/>
				</clipPath>
				<path id="head_2_" style="&st62;" d="M319.46,424.428c-40.389-47.148-110.15-66.904-167.788-49.568
					c-57.638,17.337-86.082,70.674-93.76,132.281c-7.677,61.607,10.53,116.809,10.53,116.809
					c61.561,45.783,173.826,21.718,173.826,21.718s107.971-67.705,134.06-139.852C376.328,505.817,359.85,471.577,319.46,424.428z"
					/>
				<path style="&st63;" d="M46.41,442.402l36.412-12.84c0,0-33.217,94.27,15.936,172.103c0,0,62.777,32.139,120.465,27.236
					l-123.08,29.322L48.41,633.664L46.41,442.402z"/>
			</g>
			<g id="face">
				<g id="nose_6_">
					
						<ellipse id="nose_8_" transform="matrix(0.9576 -0.288 0.288 0.9576 -137.5831 103.52)" style="&st32;" cx="282.98" cy="519.282" rx="47.579" ry="23.016"/>
					
						<ellipse id="nose_7_" transform="matrix(0.9576 -0.288 0.288 0.9576 -136.4095 102.9699)" style="&st57;" cx="281.698" cy="515.019" rx="47.579" ry="23.015"/>
				</g>
				<g id="face_4_">
					<g id="eyes_6_">
						<g id="eye_8_">
							<path style="&st58;" d="M225.005,508.038c1.648,5.478-1.457,11.253-6.935,12.901c-5.477,1.648-11.254-1.456-12.902-6.934
								c-1.648-5.479,1.458-11.254,6.936-12.902S223.357,502.559,225.005,508.038z"/>
							
								<ellipse transform="matrix(0.9576 -0.288 0.288 0.9576 -138.3368 84.3661)" style="&st57;" cx="217.517" cy="512.266" rx="7.753" ry="7.753"/>
							
								<ellipse transform="matrix(0.9576 -0.288 0.288 0.9576 -138.4973 85.0368)" style="&st59;" cx="219.715" cy="513.147" rx="2.506" ry="2.506"/>
						</g>
						<g id="eye_7_">
							<path style="&st58;" d="M307.208,482.816c1.648,5.478,7.425,8.582,12.902,6.934c5.477-1.647,8.583-7.423,6.936-12.901
								c-1.648-5.479-7.426-8.582-12.902-6.935C308.664,471.562,305.56,477.337,307.208,482.816z"/>
							<g>
								
									<ellipse transform="matrix(0.9576 -0.288 0.288 0.9576 -125.5787 111.7387)" style="&st57;" cx="316.911" cy="482.599" rx="7.753" ry="7.753"/>
								
									<ellipse transform="matrix(0.9576 -0.288 0.288 0.9576 -126.186 111.2089)" style="&st59;" cx="314.807" cy="484.398" rx="2.507" ry="2.507"/>
							</g>
						</g>
					</g>
				</g>
			</g>
		</g>
		<g id="Body_2_">
			<g id="Body_3_">
				<g id="Leg_1_">
					<g>
						<defs>
							<path id="SVGID_17_" d="M373.517,713.998c0,0,22.726,46.667-36.789,99.409h-19.154c0,0-97.346-8.176-106.679-81.676
								C210.894,731.732,312.017,661.498,373.517,713.998z"/>
						</defs>
						<clipPath id="SVGID_18_">
							<use xlink:href="#SVGID_17_"  style="overflow:visible;"/>
						</clipPath>
						<path style="&st64;" d="M373.517,713.998c0,0,22.726,46.667-36.789,99.409h-19.154c0,0-97.346-8.176-106.679-81.676
							C210.894,731.732,312.017,661.498,373.517,713.998z"/>
						<path style="&st65;" d="M374.16,710.209c-0.25,1.039,11.833,91.143-91.333,96.966L374.16,710.209z"/>
					</g>
					<path style="&st45;" d="M357.639,809.81c-0.007,4.51-10.684,5.153-21.379,5.135c-10.696-0.017-19.353,0.989-19.353-3.198
						c0-4.51,10.684-11.153,21.379-11.135S357.646,805.299,357.639,809.81z"/>
				</g>
				<path id="Body_1_" style="&st58;" d="M119.095,640.326c-3.171,43.855-33.214,42.324-35.89,88.384
					c-1.584,27.262,46.009,92.055,160.99,83.806c114.981-8.25,138.99-68.098,124.64-127.518
					c-14.349-59.42-66.517-120.082-66.517-120.082S122.265,596.471,119.095,640.326z"/>
				<g id="Leg_2_">
					<g id="Leg">
						<g>
							<defs>
								<path id="SVGID_19_" d="M229.871,734.414c-8.946-37.823-63.146-48.56-63.146-48.56l-5.039-42.812
									c0,0-43.943,10.541-53.943,26.708c-10,16.167-27.601,29.331-24.577,63.664c6.499,73.765,62.895,84.993,62.895,84.993h27.817
									C225.878,789.083,232.484,744.697,229.871,734.414z"/>
							</defs>
							<clipPath id="SVGID_20_">
								<use xlink:href="#SVGID_19_"  style="overflow:visible;"/>
							</clipPath>
							<path style="&st66;" d="M229.871,734.414c-8.946-37.823-63.146-48.56-63.146-48.56l-5.039-42.812
								c0,0-43.943,10.541-53.943,26.708c-10,16.167-27.601,29.331-24.577,63.664c6.499,73.765,62.895,84.993,62.895,84.993h27.817
								C225.878,789.083,232.484,744.697,229.871,734.414z"/>
							<path style="&st67;" d="M83.798,668.498l25.112,16.5c0,0-29.007,81.498,37.496,131.749l-51.869,1.552L56.024,700.664
								L83.798,668.498z"/>
						</g>
						<path style="&st45;" d="M188.975,814.812c-0.007,4.51-11.165,5.152-22.343,5.134c-11.178-0.018-20.225,0.988-20.226-3.199
							c0-4.51,11.165-11.152,22.342-11.134S188.983,810.302,188.975,814.812z"/>
					</g>
				</g>
			</g>
			<g id="Shirt_6_">
				<path style="&st14;" d="M85.898,705.477c0,0,26.512-5.729,31.512-5.479s4.282-3.468,4.282-3.468l-5.782-4.282L85.898,705.477z"
					/>
				<g>
					<defs>
						<path id="Shirt_5_" d="M119.006,621.935c0,0-16.551,28.896-20.229,41.563c-3.678,12.667-13.753,31.689-13.446,34.355
							c0.307,2.667-1.533,2.667-1.533,4.5s2.084,3.278,2.101,3.124c0,0,52.238-18.079,98.83-21.412s74.744-31.317,106.47-34.567
							s40.909,2.246,40.909,2.246s1.252-3.271,0.078-4.678c0,0,1.174-2.833,0.502-3.667c-0.672-0.833-2.509-1.681-2.509-1.681
							s0.458-24.652-37.552-68.319C292.627,573.398,183.99,577.269,119.006,621.935z"/>
					</defs>
					<clipPath id="Shirt_8_">
						<use xlink:href="#Shirt_5_"  style="overflow:visible;"/>
					</clipPath>
					<path id="Shirt_4_" style="&st68;" d="M119.006,621.935c0,0-16.551,28.896-20.229,41.563
						c-3.678,12.667-13.753,31.689-13.446,34.355c0.307,2.667-1.533,2.667-1.533,4.5s2.084,3.278,2.101,3.124
						c0,0,52.238-18.079,98.83-21.412s74.744-31.317,106.47-34.567s40.909,2.246,40.909,2.246s1.252-3.271,0.078-4.678
						c0,0,1.174-2.833,0.502-3.667c-0.672-0.833-2.509-1.681-2.509-1.681s0.458-24.652-37.552-68.319
						C292.627,573.398,183.99,577.269,119.006,621.935z"/>
					<path style="&st69;" d="M139.41,599.498l44-10.823c0,0-16.25,47.823-16.75,49.323s12.5,31.753,12.5,31.753l10.25,15.747
						l-107.75,23.25l-8.25-19.672L139.41,599.498z"/>
					<path style="&st69;" d="M83.798,668.498l1.862,17c0,0-0.5,9.25,6.75,6.25s26-8,25.25-6.75s-32.427,13.75-34.838,15.75
						C80.41,702.748,83.798,668.498,83.798,668.498z"/>
				</g>
			</g>
		</g>
		<g id="Arms__x2B__Box">
			<path id="Hand" style="&st31;" d="M429.88,700.664c0,0-10.022,8.333-17.829,9.333s-11.805-1.874-11.805-1.874L429.88,700.664z"/>
			<g id="Box__x2B__Shadow">
				<g id="Shadow_10_">
					<path style="&st14;" d="M117.843,703.935c0,0,41.643,63.606,104.188,58.334l0.661,2.139l32.218-5.078c0,0,21.583,2.63,25.333,1
						l96.084-37.364c0,0-0.626-3.011-1.519-5.571c-2.13-6.104-4.48-15.631-6.767-16.731
						C364.577,698.998,117.843,703.935,117.843,703.935z"/>
					<polygon style="&st14;" points="167.91,578.248 162.66,583.748 167.91,607.498 185.66,602.459 					"/>
				</g>
				<g id="Box_1_">
					
						<rect x="183.505" y="504.903" transform="matrix(0.9554 -0.2953 0.2953 0.9554 -166.9581 125.118)" style="&st4;" width="294.585" height="220.939"/>
					
						<rect x="255.51" y="494.03" transform="matrix(0.9554 -0.2953 0.2953 0.9554 -162.1787 135.0215)" style="&st0;" width="220.939" height="220.939"/>
					<polygon style="&st70;" points="471.523,571.879 398.599,710.043 504.142,677.423 					"/>
					<g id="Page_1_12_">
						<path id="Rectangle_1_12_" style="&st3;" d="M311.976,610.59l116.098-35.882l12.647,40.919l-58.049,17.941l2.032,6.575
							l-25.774,7.966l-2.032-6.575l-32.275,9.975L311.976,610.59z M329.048,642.534l12.824-3.963l-6.318-20.442l6.445-1.992
							l6.318,20.442l6.392-1.976l-8.356-27.035l-25.663,7.931L329.048,642.534L329.048,642.534z M352.706,605.474l10.616,34.076
							l12.771-3.947l-2.102-6.802l12.931-3.996l-8.437-27.297L352.706,605.474z M367.431,608.126l6.734-2.081l4.291,13.884
							l-6.734,2.081L367.431,608.126z M384.979,595.499l8.356,27.035l12.852-3.972l-6.273-20.298l6.422-1.985l6.273,20.298
							l6.415-1.983l-6.248-20.215l6.431-1.988l6.248,20.215l6.424-1.985l-8.356-27.035L384.979,595.499z"/>
					</g>
					
						<rect x="319.552" y="495.549" transform="matrix(0.9554 -0.2953 0.2953 0.9554 -138.9398 126.2486)" style="&st2;" width="57.997" height="55.235"/>
				</g>
				<path style="&st14;" d="M173.577,605.998c0,0,15.708,7.125,29.083,29.875c0,0,1.25,1.25,0.625,3l5.061,8.625v1.375
					c0,0,12.064,11.854,32.064,49.99s36.821,48.693,36.821,48.693l-91.571-43.323L173.577,605.998z"/>
			</g>
			<g id="Arm_1_">
				<g id="Arm_4_">
					<defs>
						<path id="arm_15_" d="M190.723,626.554c0,0,2.626,6.967,14.923,22.954c30.802,40.044,29.978,61.933,71.585,98.048l5.596-1.731
							c0,0-1.083,3.973-7.648,5.212c-55.504,14.122-101.198,4.05-128.19-16.704c-27.745-21.333-46.724-44.898-48.231-113.734
							C139.902,551.979,190.723,626.554,190.723,626.554z"/>
					</defs>
					<clipPath id="arm_7_">
						<use xlink:href="#arm_15_"  style="overflow:visible;"/>
					</clipPath>
					<path style="&st71;" d="M297.91,764.409l-116.46-173.337l-58.052-30.102l-30.081,16.67l-6.151,88.826l22.643,57.29
						l38.242,34.576C148.052,758.332,264.156,797.931,297.91,764.409z"/>
					<path style="&st72;" d="M280.632,781.762l3.278-29.764c0,0-164.629,6.555-171.389-134.671l-27.979,2.351l9.892,92.416
						C94.435,712.093,194.746,795.593,280.632,781.762z"/>
				</g>
				<g id="Sleeve_4_">
					<g>
						<defs>
							<path id="SVGID_21_" d="M197.276,635.269l9.37,13.238c0,0-39.035,61.559-90.242,55.274c0,0-5.357-7.584-6.009-8.976
								C110.395,694.806,170.446,679.025,197.276,635.269z"/>
						</defs>
						<clipPath id="SVGID_22_">
							<use xlink:href="#SVGID_21_"  style="overflow:visible;"/>
						</clipPath>
						<path style="&st73;" d="M197.6,627.784l13.79,24.38c0,0-43.779,57.903-94.986,51.618c0,0-5.357-7.584-6.009-8.976
							C110.395,694.806,170.77,671.54,197.6,627.784z"/>
						<path style="&st74;" d="M142.373,703.427c0,0-10.387-11.399-11.765-16.605c-1.379-5.206-20.482,2.534-20.482,2.534
							l-1.667,4.991l4.075,12.597L142.373,703.427z"/>
					</g>
					<g>
						<defs>
							<path id="SVGID_23_" d="M200.892,640.42c0,0-38.009,58.622-89.233,56.452c0,0-1.925-0.14-2.62-0.754
								c-1.531-1.354-37.463-73.787,9.847-101.7c42.732-25.212,82.266,42.58,82.686,43.33S201.72,639.334,200.892,640.42z"/>
						</defs>
						<clipPath id="SVGID_24_">
							<use xlink:href="#SVGID_23_"  style="overflow:visible;"/>
						</clipPath>
						<path style="&st75;" d="M205.851,649.403c0,0-40.938,52.611-92.162,50.441c0,0-4.969,0.595-5.664-0.019
							c-1.531-1.354-39.616-76.309,10.862-105.407s86.782,47.235,86.782,47.235S206.678,648.316,205.851,649.403z"/>
						<path style="&st76;" d="M140.647,699.222c0,0-40.42-37.821-44.54-70.059s-23.249,14.811-23.249,14.811l24.933,43.211
							l14.835,17.389L140.647,699.222z"/>
					</g>
				</g>
			</g>
		</g>
	</g>
</g>
</svg>
