<?xml version="1.0" encoding="utf-8"?>
<!-- Generator: Adobe Illustrator 16.0.4, SVG Export Plug-In . SVG Version: 6.00 Build 0)  -->
<!DOCTYPE svg PUBLIC "-//W3C//DTD SVG 1.1//EN" "http://www.w3.org/Graphics/SVG/1.1/DTD/svg11.dtd">
<svg version="1.1" id="Layer_1" xmlns="http://www.w3.org/2000/svg" xmlns:xlink="http://www.w3.org/1999/xlink" x="0px" y="0px"
	 width="1080px" height="1080px" viewBox="0 0 1080 1080" enable-background="new 0 0 1080 1080" xml:space="preserve">
<g id="npm-wombat">
	<path id="color" fill="#986844" d="M931.375,575.054c-0.108-4.311-0.34-11.338-0.828-20.32c-0.857-15.83-2.696-40.939-6.572-70.664
		c-6.856-52.597-21.557-130.06-52.646-200.401c-22.287-50.424-53.468-97.129-90.269-135.233
		c-4.426-20.477-16.671-66.455-43.488-104.826l-5.016-7.175l-53.979,35.543c-44.457-22.38-91.048-33.721-138.575-33.721
		c-47.516,0.001-94.104,11.339-138.551,33.708l-53.963-35.53l-5.016,7.175c-26.8,38.343-39.048,84.299-43.476,104.768
		c-36.826,38.117-68.029,84.843-90.327,135.292c-31.089,70.342-45.789,147.805-52.646,200.402
		c-7.421,56.926-7.521,96.717-7.521,98.383l-0.001,2.979l1.778,2.393c25.069,33.729,60.766,62.448,106.099,85.358
		c0.493,0.249,1,0.49,1.495,0.738c-21.472,61.43-28.506,100.27-26.367,131.146c-44.7,16.47-76.053,54.934-76.053,99.756
		c0,40.138,24.938,77.33,61.592,96.501c0.376,0.72,0.764,1.438,1.175,2.148c9.819,17.006,27.282,27.57,45.574,27.57
		c7.918,0,15.674-2.062,22.431-5.962c3.512-2.028,6.643-4.481,9.382-7.265c39.976,2.815,85.755,3.335,108.622,3.402
		c35.442,19.004,75.715,32.274,118.792,32.274c0-7.038-0.169-14.246-0.486-21.585c11.12,0.652,17.465,0.827,17.465,0.827
		s5.429-0.149,15.036-0.688c-0.313,7.291-0.48,14.453-0.48,21.446c43.073,0,83.342-13.268,118.781-32.269
		c21.917-0.038,69.593-0.489,111.029-3.407c2.782,2.821,5.946,5.276,9.453,7.301c6.755,3.899,14.512,5.962,22.43,5.962
		c18.293,0,35.756-10.564,45.574-27.571c0.427-0.739,0.832-1.485,1.222-2.234c36.604-19.185,61.5-56.348,61.5-96.451
		c0-45.609-32.464-84.631-78.419-100.6c1.944-30.567-5.063-68.996-26.064-129.282c1.185-0.584,2.381-1.162,3.552-1.754
		c45.335-22.911,81.035-51.633,106.105-85.363l0.166-0.224l0.151-0.232C931.534,585.071,931.624,584.933,931.375,575.054z"/>
	<path id="outline" d="M940.48,580.395c-0.021-1.684-0.058-3.557-0.107-5.566c-0.109-4.372-0.345-11.492-0.838-20.583
		c-0.867-15.984-2.723-41.336-6.635-71.34c-4.401-33.757-10.459-66.438-18.008-97.134c-9.484-38.579-21.371-74.156-35.332-105.742
		c-22.352-50.573-53.497-97.487-90.257-136.004c-4.979-22.143-17.673-67.396-44.354-105.573l-10.03-14.35l-14.622,9.628
		l-42.359,27.892C633.631,40.14,587.28,29.256,540.002,29.256c-47.269,0-93.611,10.878-137.911,32.354l-42.343-27.88l-14.623-9.628
		l-10.029,14.35c-26.665,38.15-39.359,83.381-44.342,105.514c-36.784,38.53-67.951,85.465-90.315,136.063
		c-13.96,31.586-25.847,67.163-35.333,105.743c-7.547,30.696-13.605,63.377-18.006,97.134c-7.496,57.498-7.596,97.854-7.597,99.544
		l-0.002,5.96l3.555,4.783c24.878,33.473,59.768,62.106,103.752,85.179c-17.957,52.652-25.483,89.871-24.598,120.771
		c-44.779,18.981-75.756,59.206-75.756,105.68c0,27.701,10.898,54.998,30.688,76.863c9.598,10.604,20.885,19.465,33.284,26.287
		c11.422,19.781,31.872,32.068,53.368,32.068c9.496,0,18.808-2.479,26.93-7.167c2.941-1.698,5.647-3.654,8.14-5.807
		c37.294,2.482,78.687,3.053,103.244,3.145c34.874,18.354,76.097,32.28,120.914,32.28h9v-9c0-3.979-0.056-8.012-0.156-12.084
		c4.985,0.237,7.762,0.319,7.887,0.323l0.248,0.006l0.247-0.007c0.103-0.003,2.008-0.06,5.462-0.212
		c-0.099,4.035-0.154,8.031-0.154,11.974v9h9c44.812,0,86.029-13.922,120.899-32.272c24.175-0.062,67.102-0.583,105.66-3.147
		c2.526,2.175,5.258,4.139,8.204,5.84c8.122,4.688,17.434,7.167,26.93,7.167c21.498,0,41.947-12.289,53.369-32.071
		c0.02-0.034,0.037-0.07,0.058-0.104c12.356-6.813,23.61-15.645,33.18-26.218c19.791-21.865,30.689-49.163,30.689-76.863
		c0-47.298-32.085-88.125-78.151-106.671c0.693-30.49-6.767-67.191-24.264-118.706c44.956-23.255,80.546-52.259,105.812-86.253
		l0.332-0.446l0.305-0.467C940.57,587.689,940.52,583.645,940.48,580.395z M190.488,969.608
		c-16.789-18.55-26.034-41.557-26.034-64.785c0-37.239,24.018-69.74,59.447-86.737c4.255,27.807,15.8,50.301,29.91,77.77
		c2.655,5.168,8.742,14.078,17.641,25.109c-5.03-1.408-10.239-2.152-15.512-2.152h-0.003c-9.496,0-18.808,2.479-26.928,7.166
		c-19.139,11.052-28.932,32.475-27.191,54.457C197.803,977.111,194.011,973.5,190.488,969.608z M263.795,1022.042
		c-14.528,0-29.316-8.411-37.78-23.07c-12.071-20.909-6.702-46.608,11.993-57.403c5.588-3.227,11.736-4.756,17.93-4.756
		c14.528-0.002,29.316,8.41,37.779,23.069c12.072,20.909,6.703,46.609-11.992,57.404
		C276.137,1020.513,269.989,1022.042,263.795,1022.042z M312.116,1009.811c6.018-12.293,7.644-26.882,4.277-41.105
		c7.074,6.535,14.6,13.1,22.539,19.525c9.541,7.724,20.336,15.784,32.217,23.628
		C353.419,1011.532,332.508,1010.925,312.116,1009.811z M350.256,974.24c-46.376-37.54-75.587-77.176-80.478-86.694
		c-30.215-58.822-45.07-87.795-6.702-201.102c34.353,16.177,73.737,29.324,117.303,39.115c27.726,6.231,54.006,10.418,76.958,13.232
		c5.697,19.515,15.928,56.037,26.086,99.709c13.344,57.363,29.138,138.486,30.502,205.785
		C446.676,1041.226,388.151,1004.914,350.256,974.24z M540,1023.731c-0.865-0.027-3.945-0.134-8.875-0.379
		c-5.914-104.845-39.663-231.324-54.388-282.408c34.721,3.439,58.623,3.608,62.932,3.608l0.333-0.001l0.333,0.001
		c4.204,0,27.069-0.162,60.437-3.366c-14.766,51.255-48.437,177.576-54.322,282.283C542.934,1023.633,540.714,1023.709,540,1023.731
		z M763.167,996.096c1.016,4.865,2.595,9.46,4.675,13.724c-21.342,1.164-43.251,1.772-61.48,2.085
		c11.907-7.858,22.727-15.936,32.286-23.674c9.171-7.424,17.797-15.033,25.801-22.568
		C761.552,975.613,761.066,986.043,763.167,996.096z M816.25,1022.08c-6.194,0-12.341-1.529-17.93-4.756
		c-18.695-10.794-24.064-36.495-11.992-57.404c8.463-14.658,23.254-23.07,37.78-23.071c6.194,0,12.341,1.529,17.93,4.757
		c18.695,10.795,24.063,36.494,11.992,57.403C845.567,1013.668,830.777,1022.08,816.25,1022.08z M915.546,904.823
		c0,23.228-9.246,46.235-26.034,64.785c-3.504,3.872-7.284,7.456-11.274,10.767c1.704-21.947-8.088-43.324-27.198-54.358
		c-8.122-4.689-17.434-7.168-26.929-7.168h-0.003c-6.457,0-12.816,1.116-18.867,3.204c9.395-11.556,15.812-20.911,18.572-26.284
		c14.25-27.741,25.904-50.446,30.024-78.741C890.503,833.71,915.546,866.797,915.546,904.823z M807.758,887.629
		c-4.849,9.436-34.061,49.072-80.436,86.611c-37.895,30.674-96.42,66.985-163.671,70.046
		c2.21-109.707,42.619-257.436,56.512-305.191c23.532-2.813,50.712-7.075,79.444-13.532c42.689-9.593,81.371-22.404,115.23-38.135
		C852.79,799.925,837.927,828.897,807.758,887.629z M540.335,726.555c-0.22,0-0.333-0.001-0.333-0.001s-0.111,0.001-0.333,0.001
		c-10.714,0-276.143-1.447-382.166-144.098c0,0,0.056-160.877,59.399-295.15c22.171-50.162,53.01-96.343,90.361-134.522
		c3.263-15.797,15.026-64.589,42.586-104.02l51.037,33.604c42.696-22.32,89.642-35.113,139.116-35.113
		c49.497,0,96.462,12.806,139.172,35.143l-0.014-0.03l51.035-33.604c27.591,39.476,39.352,88.337,42.598,104.077
		c37.327,38.167,68.146,84.328,90.305,134.465c59.345,134.273,59.4,295.15,59.399,295.15
		C816.467,725.115,551.018,726.555,540.335,726.555z M652.508,654.082c0,30.057-50.37,54.422-112.506,54.422
		s-112.506-24.365-112.506-54.422s50.37-54.422,112.506-54.422S652.508,624.025,652.508,654.082z M425.428,588.762
		c0,11.212-9.121,20.333-20.333,20.333s-20.333-9.121-20.333-20.333s9.121-20.333,20.333-20.333
		C416.306,568.429,425.428,577.55,425.428,588.762z M695.238,588.762c0,12.314-10.019,22.333-22.332,22.333
		c-12.315,0-22.334-10.019-22.334-22.333c0-12.313,10.019-22.333,22.334-22.333C685.219,566.429,695.238,576.448,695.238,588.762z"
		/>
</g>
</svg>
