<?xml version="1.0" encoding="utf-8"?>
<!-- Generator: Adobe Illustrator 16.0.4, SVG Export Plug-In . SVG Version: 6.00 Build 0)  -->
<!DOCTYPE svg PUBLIC "-//W3C//DTD SVG 1.1//EN" "http://www.w3.org/Graphics/SVG/1.1/DTD/svg11.dtd">
<svg version="1.1" id="Layer_1" xmlns="http://www.w3.org/2000/svg" xmlns:xlink="http://www.w3.org/1999/xlink" x="0px" y="0px"
	 width="1400px" height="1400px" viewBox="0 0 1400 1400" enable-background="new 0 0 1400 1400" xml:space="preserve">
<g id="npm-wombat">
	<path id="color" fill="#986844" d="M1114.216,1064.03c0-49.205-37.783-90.741-89.529-103.936
		c-6.987-28.305-16.429-57.819-29.201-85.888c-11.935-26.226-26.918-51.09-44.443-73.709c13.044-10.728,25.102-21.703,36.104-32.887
		c36.451-37.054,61.486-76.535,74.409-117.349l0.899-2.841l-0.975-2.815c-0.325-0.944-5.156-14.818-14.477-36.832
		c30.646-78.363,35.994-186.79-25.923-332.958c-37.834,29.281-77.109,69.444-112.069,109.119c-0.646-0.703-1.283-1.411-1.933-2.11
		c-37.525-40.387-82.244-74.355-129.466-98.36c-10.867-17.911-37.45-57.373-75.323-84.889l-7.082-5.146l-39.424,51.218
		c-14.616-1.963-29.27-2.957-43.633-2.957c-33.914,0-67.007,5.489-98.358,16.316c-44.913,15.51-85.248,41.434-119.958,77.086
		l-62.604-15.97l-2.398,8.418c-12.816,44.994-9.392,92.429-6.896,113.221c-22.366,48.049-36.607,102.4-41.216,157.365
		c-6.425,76.638,4.965,154.656,15.652,206.61c11.566,56.229,24.461,93.874,25.004,95.447l0.972,2.817l2.461,1.681
		c30.804,21.034,67.948,35.51,110.963,43.325c-1.141,4.236-2.227,8.454-3.257,12.645c-50.646,13.781-87.392,54.853-87.392,103.377
		c0,40.138,24.937,77.33,61.591,96.501c0.376,0.721,0.765,1.438,1.175,2.149c9.819,17.007,27.282,27.57,45.574,27.57
		c7.918,0,15.674-2.062,22.431-5.963c3.512-2.027,6.642-4.48,9.382-7.265c55.923,3.939,123.229,3.384,123.229,3.384
		c0.093-0.068,0.178-0.147,0.27-0.218c6.516,1.109,12.905,2.125,19.13,3.055c36.399,20.162,78.082,34.457,122.787,34.457
		c0-8.377-0.237-16.994-0.682-25.788c21.881-1.5,58.531-4.835,100.201-12.008c0.207,0.168,0.407,0.345,0.622,0.502
		c0,0,67.286,0.555,123.203-3.382c2.782,2.821,5.946,5.275,9.453,7.301c6.754,3.9,14.512,5.963,22.43,5.963
		c18.293,0,35.756-10.565,45.574-27.572c0.427-0.739,0.832-1.485,1.223-2.235C1089.319,1141.297,1114.216,1104.133,1114.216,1064.03
		z"/>
	<path id="outline" d="M1032.093,952.819c-6.883-26.877-16.094-55.258-28.419-82.342c-11.162-24.528-24.695-47.535-40.243-68.608
		c10.754-9.15,20.813-18.474,30.135-27.949c37.454-38.073,63.218-78.764,76.572-120.941l1.799-5.683l-1.946-5.633
		c-0.314-0.909-4.755-13.662-13.286-34.044c36.037-95.283,26.867-208.355-27.336-336.312l-4.557-10.757l-9.239,7.15
		c-36.136,27.967-73.277,65.337-106.796,102.813c-36.595-38.239-79.523-70.548-124.808-93.907
		c-11.936-19.304-38.704-57.936-76.386-85.312l-14.166-10.291l-10.679,13.874L651.8,235.071c-13.289-1.581-26.583-2.38-39.646-2.38
		c-34.915,0-68.996,5.655-101.295,16.809c-44.68,15.43-84.933,40.839-119.795,75.598l-49.123-12.531l-16.964-4.328l-4.797,16.838
		c-12.751,44.766-9.985,91.661-7.472,114.208c-22.192,48.425-36.332,102.963-40.954,158.091
		c-2.885,34.413-2.508,71.921,1.119,111.484c2.886,31.479,7.828,64.347,14.687,97.689c11.682,56.796,24.76,94.975,25.312,96.57
		l1.943,5.635l4.922,3.361c28.92,19.748,63.158,33.886,102.342,42.343c-50.214,16.906-85.956,59.643-85.956,109.571
		c0,27.701,10.899,54.998,30.688,76.864c9.591,10.598,20.874,19.439,33.266,26.252c0.006,0.011,0.012,0.021,0.018,0.032
		c11.422,19.783,31.872,32.07,53.369,32.07c9.496,0,18.809-2.479,26.93-7.166c2.94-1.698,5.646-3.653,8.139-5.806
		c41.583,2.768,88.273,3.157,111.017,3.157c5.739,0,9.031-0.027,9.031-0.027l0.687-0.006c0.003,0.001,0.007,0.001,0.011,0.002
		c5.374,0.903,10.651,1.735,15.836,2.517c35.838,19.576,78.747,34.781,125.579,34.781h9v-9c0-5.725-0.111-11.555-0.316-17.467
		c21.81-1.704,53.456-4.913,88.684-10.831c0.035-0.006,0.068-0.012,0.104-0.018l2.597,0.021c0,0,3.293,0.027,9.031,0.027
		c22.738,0,69.417-0.389,110.994-3.154c2.526,2.175,5.259,4.139,8.205,5.84c8.121,4.688,17.434,7.168,26.93,7.168
		c21.498,0,41.947-12.289,53.369-32.072c0.021-0.037,0.04-0.075,0.062-0.112c12.354-6.811,23.607-15.638,33.175-26.209
		c19.791-21.866,30.689-49.163,30.689-76.864C1123.216,1012.404,1085.006,968.462,1032.093,952.819z M1017.34,289.288
		c45.023,110.966,54.635,209.617,28.713,293.888c-4.59-10.146-9.831-21.269-15.736-33.124
		c-15.18-30.471-31.573-59.385-48.728-85.936c-19.271-29.829-39.574-56.752-60.454-80.202
		C951.557,349.765,984.889,315.751,1017.34,289.288z M289.689,598.881c4.582-54.65,18.656-108.369,41.5-156.647
		c-2.074-15.998-6.881-65.958,6.299-112.223l59.21,15.104c33.071-35.032,73.269-62.448,120.033-78.598
		c31.276-10.801,63.352-15.824,95.42-15.823c15.9,0,31.801,1.235,47.6,3.612l-0.022-0.024l37.273-48.425
		c38.964,28.308,66.03,70.654,74.236,84.472c47.741,23.893,91.938,57.465,129.249,97.623
		c99.923,107.548,152.489,259.595,152.489,259.595c-54.764,172.948-314.511,261.056-314.511,261.056s-105.999,37.261-221.601,37.261
		c-65.005,0-133.06-11.788-186.98-48.609C329.885,897.253,277.425,745.171,289.689,598.881z M380.158,1128.815
		c-16.789-18.549-26.034-41.557-26.034-64.785c0-48.953,41.484-89.743,95.868-97.85c0.021,0.454,0.032,0.915,0.057,1.367
		c1.904,35.028,14.916,60.36,31.434,92.517c7.2,14.013,39.56,55.495,85.121,92.374c7.665,6.204,16.14,12.627,25.335,18.979
		c-19.48-0.079-55.569-0.509-90.154-2.397c8.591-17.546,8.249-39.778-2.809-58.932c-11.422-19.778-31.869-32.067-53.366-32.067
		h-0.003c-9.496,0-18.809,2.479-26.929,7.166c-19.135,11.048-28.929,32.466-27.192,54.444
		C387.471,1136.313,383.679,1132.706,380.158,1128.815z M453.465,1181.249c-14.527,0-29.315-8.41-37.78-23.07
		c-12.07-20.907-6.701-46.606,11.993-57.401c5.588-3.228,11.737-4.756,17.931-4.756c14.527-0.002,29.315,8.409,37.778,23.067
		c12.072,20.91,6.703,46.609-11.992,57.404C465.807,1179.72,459.659,1181.249,453.465,1181.249z M577.928,1138.448
		c-46.376-37.539-75.588-77.176-80.478-86.693c-16.827-32.759-28.88-56.266-29.643-90.226c15.712,1.546,32.066,2.331,49.062,2.331
		c33.883,0,88.824-3.312,158.144-19.078c7.244-1.647,14.031-3.293,20.322-4.889c4.807,17.88,10.314,39.387,15.795,62.957
		c13.328,57.318,29.104,138.387,30.47,205.644C674.347,1205.434,615.823,1169.122,577.928,1138.448z M712.796,935.255
		c18.768-5.217,30.21-9.172,31.547-9.64c3.834-1.307,68.227-23.547,140.196-67.308c23.608-14.354,45.312-29.401,64.965-45.003
		c14.571,19.862,27.276,41.531,37.787,64.628c10.438,22.938,18.608,46.957,25.019,70.497c-7.419-1.123-15.043-1.716-22.822-1.716
		c-25.48,0-50.261,6.306-71.662,18.235c-20.915,11.658-37.698,28.115-48.553,47.606l-0.116,0.206
		c-12.655,22.48-25.78,59.484-32.66,92.078c-6.493,30.761-6.922,53.649-1.335,68.422c-30.382,4.764-57.42,7.476-76.687,8.991
		C752.853,1095.462,728.941,995.147,712.796,935.255z M1043.7,1158.216c-8.463,14.66-23.252,23.072-37.779,23.072
		c-6.195,0-12.342-1.529-17.93-4.756c-18.695-10.795-24.064-36.496-11.992-57.404c8.463-14.658,23.254-23.07,37.779-23.072
		c6.194,0,12.342,1.529,17.93,4.759C1050.403,1111.609,1055.771,1137.309,1043.7,1158.216z M1079.182,1128.815
		c-3.508,3.875-7.28,7.475-11.275,10.784c1.711-21.953-8.081-43.338-27.196-54.375c-8.123-4.689-17.434-7.169-26.93-7.169h-0.002
		c-21.498,0.002-41.947,12.291-53.367,32.072c-8.058,13.951-10.746,29.994-7.574,45.176c1.016,4.864,2.595,9.459,4.674,13.723
		c-39.772,2.169-81.541,2.408-97.719,2.408c-2.186,0-4.011-0.004-5.427-0.009c-7.885-9.715-5.235-39.28-0.257-62.868
		c6.327-29.978,18.65-65.049,30.143-85.904l0.626-1.122c19.104-34.516,60.165-56.817,104.61-56.817
		c63.812,0,115.729,44.553,115.729,99.316C1105.216,1087.258,1095.97,1110.266,1079.182,1128.815z M608.464,876.856
		c-9.811-28.409,29.847-67.88,88.577-88.161s114.294-13.692,124.104,14.717c9.81,28.409-29.848,67.88-88.578,88.16
		C673.837,911.854,618.274,905.265,608.464,876.856z M859.749,744.582l-14.465,2.965c-0.067-0.309-7.017-30.924-22.354-27.787
		c-15.33,3.101-9.439,33.957-9.378,34.269l-14.472,2.944c-0.09-0.436-2.227-10.825-1.259-21.998
		c1.942-22.524,14.639-28.411,22.025-29.93c7.391-1.511,21.405-1.068,32.23,18.853C857.451,733.773,859.657,744.146,859.749,744.582
		z M541.818,854.373l13.212-6.594c-0.14-0.281-13.562-28.662,0.445-35.658c13.975-7.021,28.382,20.896,28.523,21.18l13.203-6.613
		c-0.197-0.396-4.928-9.893-12.583-18.086c-15.433-16.526-29.051-13.325-35.803-9.961c-6.747,3.371-17.502,12.367-13.729,34.724
		C536.958,844.449,541.622,853.974,541.818,854.373z"/>
</g>
</svg>
