<?xml version="1.0" encoding="utf-8"?>
<!-- Generator: Adobe Illustrator 16.0.4, SVG Export Plug-In . SVG Version: 6.00 Build 0)  -->
<!DOCTYPE svg PUBLIC "-//W3C//DTD SVG 1.1//EN" "http://www.w3.org/Graphics/SVG/1.1/DTD/svg11.dtd">
<svg version="1.1" id="Layer_1" xmlns="http://www.w3.org/2000/svg" xmlns:xlink="http://www.w3.org/1999/xlink" x="0px" y="0px"
	 width="1920px" height="1080px" viewBox="0 0 1920 1080" enable-background="new 0 0 1920 1080" xml:space="preserve">
<g id="Layer_5">
	<g>
		<g>
			<rect x="545.602" y="512.4" fill="#DA9A5B" width="310.514" height="232.887"/>
			<polygon opacity="0.05" enable-background="new    " points="856.114,628.844 739.672,745.287 856.114,745.287 			"/>
			<rect x="663.984" y="512.4" fill="#E5B486" width="73.746" height="58.221"/>
			<g id="Page_1_11_">
				<path id="Rectangle_1_11_" fill="#191009" d="M633.68,618.17h134.357v45.146h-67.18v7.254h-29.826v-7.254H633.68V618.17z
					 M641.286,655.652h14.841V633.1h7.462v22.555h7.396v-29.826h-29.698L641.286,655.652L641.286,655.652z M678.375,625.693
					l0.09,37.621h14.779v-7.508h14.962v-30.113H678.375L678.375,625.693z M693.066,632.949h7.791v15.314h-7.791V632.949z
					 M715.727,625.693v29.828h14.868v-22.396h7.437v22.396h7.427v-22.307h7.44v22.307h7.438v-29.828H715.727z"/>
			</g>
		</g>
		<g>
			<rect x="776.299" y="512.4" fill="#BA7D4A" width="310.514" height="232.887"/>
			<rect x="776.299" y="512.4" fill="#DA9A5B" width="232.887" height="232.887"/>
			<polygon opacity="0.05" enable-background="new    " points="1086.812,628.844 970.37,745.287 1086.812,745.287 			"/>
			<g id="Page_1_10_">
				<path id="Rectangle_1_10_" fill="#191009" d="M820.936,618.17h128.086v45.146h-64.043v7.254h-28.436v-7.254h-35.607V618.17z
					 M828.186,655.652h14.148V633.1h7.112v22.555h7.051v-29.826h-28.312V655.652L828.186,655.652z M863.546,625.693l0.084,37.621
					h14.09v-7.508h14.266v-30.113H863.546L863.546,625.693z M877.549,632.949h7.43v15.314h-7.43V632.949z M899.152,625.693v29.828
					h14.175v-22.396h7.088v22.396h7.08v-22.307h7.097v22.307h7.088v-29.828H899.152z"/>
			</g>
			<rect x="854.412" y="512.4" fill="#E5B486" width="61.134" height="58.221"/>
		</g>
		<g>
			<rect x="1079.279" y="518.638" fill="#DA9A5B" width="310.514" height="232.887"/>
			<rect x="1234.536" y="518.638" fill="#BA7D4A" width="155.257" height="232.887"/>
			<g id="Page_1_2_">
				<path id="Rectangle_1_2_" fill="#191009" d="M1280.145,624.406h87.332v45.145h-43.668v7.256h-19.385v-7.256h-24.279V624.406z
					 M1285.089,661.891h9.646v-22.553h4.847v22.553h4.807v-29.828h-19.3V661.891z M1309.197,631.93l0.055,37.621h9.608v-7.504h9.725
					V631.93H1309.197z M1318.745,639.186h5.062v15.318h-5.062V639.186z M1333.473,631.93v29.828h9.665v-22.393h4.831v22.393h4.827
					v-22.303h4.84v22.303h4.832V631.93H1333.473z"/>
			</g>
			<polygon opacity="0.05" enable-background="new    " points="1389.793,635.08 1273.351,751.523 1389.793,751.523 			"/>
			<rect x="1302.462" y="518.638" fill="#D6A67F" width="42.695" height="58.223"/>
		</g>
	</g>
	<g>
		<g>
			<rect x="569.516" y="301.245" fill="#BA7D4A" width="281.593" height="211.192"/>
			<rect x="569.516" y="301.245" fill="#DA9A5B" width="211.193" height="211.192"/>
			<polygon opacity="0.05" enable-background="new    " points="851.105,406.842 745.51,512.438 851.105,512.438 			"/>
			<g id="Page_1_4_">
				<path id="Rectangle_1_4_" fill="#191009" d="M609.995,397.162H726.15V438.1h-58.079v6.579h-25.785V438.1h-32.292
					L609.995,397.162L609.995,397.162z M616.569,431.154H629.4v-20.453h6.448v20.453h6.396v-27.049h-25.675V431.154L616.569,431.154
					z M648.636,403.985l0.077,34.115h12.776v-6.807h12.936v-27.31L648.636,403.985L648.636,403.985z M661.335,410.564h6.736v13.891
					h-6.736V410.564z M680.926,403.985v27.049h12.855v-20.311h6.427v20.311h6.42v-20.228h6.437v20.228h6.429v-27.049H680.926z"/>
			</g>
			<rect x="640.354" y="301.245" fill="#E5B486" width="55.438" height="52.798"/>
		</g>
		<g>
			<rect x="839.198" y="199.731" fill="#DA9A5B" width="161.045" height="120.783"/>
			<rect x="954.949" y="199.731" fill="#BA7D4A" width="45.294" height="120.783"/>
			<g id="Page_1_7_">
				<path id="Rectangle_1_7_" fill="#191009" d="M971.896,254.587h21.138V278h-10.569v3.763h-4.691V278h-5.877V254.587
					L971.896,254.587z M973.092,274.027h2.336V262.33h1.176v11.697h1.162v-15.469h-4.674V274.027z M978.929,258.489L978.942,278
					h2.325v-3.893h2.354v-15.619L978.929,258.489L978.929,258.489z M981.24,262.251h1.225v7.944h-1.225V262.251z M984.804,258.489
					v15.47h2.341v-11.614h1.168v11.614h1.171v-11.567h1.172v11.567h1.168v-15.47H984.804z"/>
			</g>
			<polygon opacity="0.05" enable-background="new    " points="1000.243,260.123 939.852,320.514 1000.243,320.514 			"/>
			<rect x="977.094" y="199.731" fill="#D6A67F" width="11.071" height="30.196"/>
		</g>
		<g>
			<rect x="784.121" y="319.608" fill="#BA7D4A" width="262.848" height="197.137"/>
			<rect x="784.121" y="319.608" fill="#DA9A5B" width="131.423" height="197.137"/>
			<g id="Page_1_5_">
				<path id="Rectangle_1_5_" fill="#191009" d="M803.012,409.141h73.928v38.213h-36.965v6.144h-16.406v-6.144h-20.557V409.141z
					 M807.199,440.871h8.166v-19.093h4.103v19.093h4.068v-25.249h-16.337V440.871z M827.607,415.511l0.044,31.846h8.135v-6.354
					h8.231v-25.491H827.607z M835.689,421.651h4.283v12.966h-4.283V421.651z M848.155,415.511v25.247h8.182v-18.956h4.09v18.956
					h4.087v-18.879h4.099v18.879h4.089v-25.247H848.155z"/>
			</g>
			<polygon opacity="0.05" enable-background="new    " points="1046.969,418.176 948.401,516.745 1046.969,516.745 			"/>
			<rect x="821.905" y="319.608" fill="#E5B486" width="36.142" height="49.282"/>
		</g>
		<g>
			<rect x="992.554" y="286.645" fill="#DA9A5B" width="310.516" height="232.884"/>
			<rect x="1070.183" y="286.645" fill="#BA7D4A" width="232.887" height="232.884"/>
			<polygon opacity="0.05" enable-background="new    " points="1303.067,403.087 1186.625,519.529 1303.067,519.529 			"/>
			<g id="Page_1_6_">
				<path id="Rectangle_1_6_" fill="#191009" d="M1130.345,392.413h128.087v45.145h-64.044v7.255h-28.436v-7.255h-35.607V392.413z
					 M1137.596,429.897h14.147v-22.555h7.112v22.555h7.051V400.07h-28.312L1137.596,429.897L1137.596,429.897z M1172.955,399.938
					l0.085,37.62h14.089v-7.505h14.264v-30.115H1172.955z M1186.959,407.192h7.429v15.315h-7.429V407.192z M1208.562,399.938v29.827
					h14.176v-22.394h7.088v22.394h7.078v-22.303h7.099v22.303h7.088v-29.827H1208.562z"/>
			</g>
			<rect x="1163.821" y="286.645" fill="#D6A67F" width="61.133" height="58.221"/>
		</g>
	</g>
	<polygon opacity="0.1" enable-background="new    " points="1345.157,518.638 1302.462,518.638 1234.536,518.638 1086.812,518.638 
		1086.812,512.4 1009.186,512.4 915.546,512.4 856.114,512.4 854.412,512.4 776.299,512.4 737.73,512.4 663.984,512.4 
		545.602,512.4 545.602,745.287 739.672,745.287 776.299,745.287 856.114,745.287 970.37,745.287 1009.186,745.287 
		1079.279,745.287 1079.279,751.523 1234.536,751.523 1273.351,751.523 1389.793,751.523 1389.793,635.08 1389.793,518.638 	"/>
	<polygon opacity="0.1" enable-background="new    " points="1345.157,519 1303,519 1303,403.087 1303,287 1224.954,287 
		1163.821,287 1070.183,287 1000,287 1000,260.123 1000,200 988.165,200 977.094,200 954.949,200 839,200 839,301 780.709,301 
		695.792,301 640.354,301 570,301 570,512 546,512 546,745 739.672,745 776.299,745 856.114,745 970.37,745 1009.186,745 1079,745 
		1079,752 1234.536,752 1273.351,752 1390,752 1390,635.08 1390,519 	"/>
</g>
<g id="Layer_3">
	<g id="npm-wombat_1_">
		<g>
			<g id="body__x2B__legs_1_">
				<g id="body_3_">
					<g id="body_4_">
						<path id="body_5_" fill="#986844" d="M1054.821,638.252c-24.961-52.036-76.036-93.028-135.902-93.028
							c-59.864,0-110.938,40.992-135.901,93.027c-24.961,52.037-24.984,114.382-24.984,114.382
							c54.376,36.771,160.887,39.693,160.887,39.693s106.53-2.933,160.889-39.693
							C1079.807,752.634,1079.783,690.288,1054.821,638.252z"/>
						<g id="body_shadow_1_">
							<path fill="#895D3D" d="M823.325,779.12c-61.95-55.994-23.438-155.681-23.438-155.681l17.946-24.971
								c0,0-6.046,1.989-11.768,3.659c-9.105,11.064-16.879,23.254-23.051,36.122c-23.257,48.481-24.864,105.902-24.977,113.521
								c0,0.015,0,0.028,0,0.041c-0.001,0.097-0.002,0.182-0.003,0.261c0,0.017,0,0.033,0,0.048
								c-0.001,0.066-0.002,0.13-0.002,0.185c0,0.029-0.001,0.052-0.001,0.076c0,0.036,0,0.07,0,0.099s0,0.05,0,0.068
								c0,0.048,0,0.083,0,0.083C776.009,764.79,799.686,773.246,823.325,779.12L823.325,779.12z"/>
							<path fill="#895D3D" d="M1014.537,779.12c61.951-55.994,23.438-155.681,23.438-155.681l-17.945-24.972
								c0,0,6.047,1.989,11.768,3.658c9.104,11.064,16.878,23.255,23.051,36.123c23.255,48.481,24.865,105.902,24.978,113.521
								c0,0.017,0.001,0.028,0.001,0.043c0.002,0.097,0.002,0.181,0.004,0.259c0,0.018,0,0.032,0,0.049
								c0.002,0.067,0.002,0.13,0.002,0.185c0,0.028,0.001,0.054,0.001,0.077c0,0.035,0.001,0.068,0.001,0.1
								c0,0.028,0,0.048,0,0.066c0,0.049,0,0.083,0,0.083C1061.854,764.79,1038.179,773.246,1014.537,779.12L1014.537,779.12z"/>
						</g>
					</g>
					<g id="belly_1_">
						<path fill="#B78563" d="M918.91,669.271c-68.49,0-127.988,19.418-158.057,47.938c-2.815,20.89-2.821,35.425-2.821,35.425
							c54.376,36.771,160.887,39.693,160.887,39.693s106.53-2.932,160.888-39.693c0,0-0.008-14.523-2.817-35.4
							C1046.926,688.7,987.415,669.271,918.91,669.271z"/>
						<g id="belly_shadow_1_">
							<path fill="#A57859" d="M823.276,779.108c0,0-32.621-25.197-35.07-81.204c0,0-19.881,10.864-27.354,19.329
								c-2.812,20.877-2.817,35.398-2.817,35.398C775.997,764.781,799.651,773.233,823.276,779.108
								C823.275,779.108,823.275,779.108,823.276,779.108z"/>
							<path fill="#A57859" d="M1014.562,779.108c0,0,32.619-25.197,35.068-81.204c0,0,19.881,10.864,27.355,19.329
								c2.812,20.877,2.816,35.398,2.816,35.398C1061.843,764.782,1038.188,773.233,1014.562,779.108L1014.562,779.108z"/>
						</g>
					</g>
				</g>
				<g id="legs_1_">
					<g id="leg_3_">
						<path fill="#986844" d="M851.838,712.148c0-0.001-0.001-0.001-0.001-0.002c-9.231-16.681-28.87-28.195-51.606-28.195
							c-31.604,0-57.224,22.249-57.224,49.69c0,24.115,19.618,45.914,45.237,49.859s75.597,3.532,75.597,3.532
							C876.116,778.058,862.336,730.799,851.838,712.148z"/>
						<g id="shadow_6_">
							<path fill="#895D3D" d="M800.23,784.19c-71.729-42.432-12.097-99.107-12.075-99.128
								c-25.807,4.813-45.148,24.733-45.148,48.582c0,24.112,19.618,45.911,45.237,49.856c3.978,0.613,8.543,1.121,13.417,1.541
								C801.193,784.763,800.719,784.479,800.23,784.19z"/>
							
								<ellipse transform="matrix(0.866 -0.5 0.5 0.866 -276.2231 496.6868)" fill="#895D3D" cx="788.652" cy="763.746" rx="17.931" ry="20.056"/>
						</g>
						<g>
							
								<ellipse transform="matrix(0.866 -0.5 0.5 0.866 -277.9528 498.3476)" fill="#7A5336" cx="790.955" cy="767.842" rx="17.932" ry="20.055"/>
							
								<ellipse transform="matrix(0.866 -0.5 0.5 0.866 -279.6943 500.113)" fill="#AF7146" cx="793.315" cy="771.939" rx="10.87" ry="12.158"/>
						</g>
					</g>
					<g id="leg_1_">
						<path fill="#986844" d="M987.02,712.148c0-0.001,0-0.001,0.002-0.002c9.23-16.681,28.869-28.195,51.604-28.195
							c31.604,0,57.224,22.249,57.224,49.69c0,24.115-19.619,45.914-45.235,49.859c-25.618,3.945-75.599,3.532-75.599,3.532
							C962.742,778.058,976.521,730.799,987.02,712.148z"/>
						<g id="shadow_5_">
							<path fill="#895D3D" d="M1038.627,784.19c71.729-42.432,12.096-99.107,12.074-99.128
								c25.805,4.813,45.146,24.733,45.146,48.582c0,24.112-19.618,45.911-45.234,49.856c-3.979,0.613-8.543,1.121-13.417,1.541
								C1037.664,784.763,1038.139,784.479,1038.627,784.19z"/>
							
								<ellipse transform="matrix(-0.866 -0.5 0.5 -0.866 1577.8866 1950.271)" fill="#895D3D" cx="1050.229" cy="763.739" rx="17.932" ry="20.055"/>
						</g>
						<g>
							
								<ellipse transform="matrix(-0.866 -0.5 0.5 -0.866 1571.5299 1956.8369)" fill="#7A5336" cx="1047.936" cy="767.87" rx="17.932" ry="20.054"/>
							
								<ellipse transform="matrix(-0.866 -0.5 0.5 -0.866 1565.0684 1963.2258)" fill="#AF7146" cx="1045.562" cy="771.929" rx="10.87" ry="12.157"/>
						</g>
					</g>
				</g>
			</g>
		</g>
		<g id="arms_1_">
			<g>
				<rect x="809.541" y="661.299" fill="#DA9A5B" width="200.163" height="150.121"/>
				<polygon opacity="0.05" enable-background="new    " points="1010.834,736.359 935.773,811.421 1010.834,811.421 				"/>
				<polygon fill="#E5B486" points="932.1,661.298 971.365,661.298 965.521,727.998 927.672,714.372 				"/>
				<g id="Page_1_1_">
					<path id="Rectangle_1_1_" fill="#191009" d="M867.449,729.479h86.611v29.102h-43.307v4.678h-19.227v-4.678H867.45
						L867.449,729.479L867.449,729.479z M872.352,753.641h9.566v-14.538h4.811v14.538h4.768v-19.227h-19.145V753.641z
						 M896.262,734.328l0.058,24.251h9.527v-4.838h9.646v-19.415h-19.229L896.262,734.328L896.262,734.328z M905.73,739.005h5.023
						v9.874h-5.023V739.005z M920.339,734.328v19.228h9.585V739.12h4.793v14.438h4.788v-14.377h4.797v14.377h4.793v-19.229
						L920.339,734.328L920.339,734.328z"/>
				</g>
			</g>
		</g>
		<g id="arm_7_">
			<path id="arm_8_" fill="#986844" d="M1077.801,652.856c20.38,39.617,13.876,48.604,0.682,66.889
				c-4.748,6.581-49.023,46.32-105.075,46.32c0-38.715,24.805-95.269,24.805-95.269S1046.447,591.898,1077.801,652.856z"/>
			<path opacity="0.1" enable-background="new    " d="M973.408,766.064c56.052,0,100.327-39.739,105.076-46.32
				c13.192-18.285,19.697-27.271-0.683-66.889c-0.397-0.772-0.8-1.507-1.202-2.235
				C1076.661,651.222,1083.811,723.805,973.408,766.064z"/>
		</g>
		<g id="npm_-_wombat_-_face_1_">
			<path opacity="0.1" enable-background="new    " d="M866.774,402.382c-47.492,47.757-73.96,116.653-73.96,116.653
				c7.783,27.833,27.063,51.361,48.912,70.217c-0.004-0.007-0.008-0.014-0.012-0.021c41.076,35.459,91.256,54.409,91.256,54.409
				s49.952,19.483,104.19,20.619c-0.002,0-0.003,0.001-0.005,0.002c4.878,0.104,9.76,0.058,14.633-0.164
				c23.899-1.092,48.29-6.31,68.7-19.294c1.078-2.827,2.053-5.694,3.01-8.564c5.92-17.764,10.614-35.972,14.121-54.363
				c4.73-24.799,7.368-50.26,5.822-75.511c-1.476-24.104-6.877-48.026-16.463-70.217c1.198-7.288,4.187-30.119-1.139-51.551
				l-27.384,6.003c-12.64-14.335-28.017-26.235-45.364-34.323c-22.993-10.721-48.698-14.327-73.834-11.413l0.01-0.009v-0.003h0.001
				c-0.001,0-0.001,0-0.001,0l-16.335-22.78c-18.311,12.374-31.371,31.359-35.347,37.564
				C905.315,369.844,884.515,384.543,866.774,402.382C819.282,450.139,884.515,384.544,866.774,402.382z"/>
			<g id="ears_1_">
				<g id="ear_3_">
					<path fill="#986844" d="M927.63,351.771l32.203,3.307l20.754-20.138l-16.334-22.783
						C942.112,327.121,927.63,351.771,927.63,351.771z"/>
					<polygon fill="#895D3D" points="960.215,341.091 964.253,312.157 980.587,334.94 975.875,339.513 					"/>
				</g>
				<g id="ear_2_">
					<path fill="#986844" d="M1127.872,428.627l-26.147-19.089l-1.95-28.852l27.386-6.003
						C1133.603,400.618,1127.874,428.628,1127.872,428.627z"/>
					<polygon fill="#895D3D" points="1110.8,398.888 1127.16,374.684 1099.776,380.688 1100.217,387.237 					"/>
				</g>
			</g>
			<path id="head_1_" fill="#986844" d="M794.153,509.129c22.415,80.154,140.139,124.598,140.139,124.598
				s117.232,45.736,187.519,1.162c0,0,26.422-68.912,23.078-136.181c-3.347-67.267-37.968-132.535-98.926-155.931
				c-60.957-23.396-130.357,1.947-177.848,49.702C820.625,440.235,794.151,509.13,794.153,509.129z"/>
			<g id="nose_1_">
				
					<ellipse id="nose_3_" transform="matrix(-0.3583 0.9336 -0.9336 -0.3583 1849.7322 -57.0494)" fill="#895D3D" cx="944.471" cy="607.147" rx="24.97" ry="51.617"/>
				
					<ellipse id="nose_2_" transform="matrix(-0.3583 0.9336 -0.9336 -0.3583 1847.8884 -64.7722)" cx="946.203" cy="602.639" rx="24.968" ry="51.618"/>
			</g>
			<g id="face_1_">
				<g id="eyes_1_">
					<g id="eye_2_">
						<path fill="#B78563" d="M1020.795,584.987c5.795,2.223,8.688,8.721,6.467,14.515c-2.226,5.794-8.725,8.686-14.518,6.464
							c-5.793-2.225-8.688-8.722-6.465-14.515C1008.503,585.655,1015.002,582.762,1020.795,584.987z"/>
						<circle cx="1014.042" cy="596.625" r="8.411"/>
						<circle fill="#FFFFFF" cx="1014.108" cy="594.409" r="2.718"/>
					</g>
					<g id="eye_1_">
						<path fill="#B78563" d="M902.101,539.429c-5.792-2.223-12.291,0.67-14.516,6.463c-2.224,5.793,0.671,12.29,6.465,14.515
							c5.793,2.224,12.292-0.669,14.516-6.462C910.791,548.152,907.895,541.654,902.101,539.429z"/>
						<circle cx="899.334" cy="552.6" r="8.41"/>
						<circle fill="#FFFFFF" cx="900.769" cy="550.905" r="2.719"/>
					</g>
				</g>
			</g>
			<path id="shadow_4_" fill="#895D3D" d="M1099.775,380.686c27.435,31.11,42.931,74.14,45.113,118.022
				c3.343,67.266-23.079,136.18-23.079,136.18c-24.409,15.479-54.479,20.066-83.333,19.461c29.854-11.987,55.08-32.413,55.08-32.413
				C1158.318,460.134,1100.92,382.215,1099.775,380.686z M980.589,334.938c-41.204,4.768-81.509,26.376-112.493,57.53
				c-47.493,47.758-73.961,116.653-73.961,116.653c7.784,27.833,27.063,51.362,48.912,70.218
				c-14.169-28.884-19.25-60.941-19.25-60.941C883.925,354.817,978.715,335.311,980.589,334.938z"/>
		</g>
		<g>
			<g id="arm_3_">
				<path id="arm_4_" opacity="0.1" enable-background="new    " d="M783.08,519.168c-33.43,16.379-39.051,51.482-32.291,70.278
					c2.432,6.762,41.39,29.503,96.419,57.366c13.116-25.906,7.928-76.078,7.928-76.078S834.514,493.965,783.08,519.168z"/>
				<g>
					<g>
						<path fill="#D38A09" d="M868.967,658.551c-3.229-0.986-11.845-16.712-11.845-16.712l-5.42-1.655
							c-0.827-2.145-6.668-18.828-6.127-20.599c0.541-1.772-1.396-2.519-1.396-2.519s-1.146-0.351-3.229-0.987
							c-2.085-0.635-3.131-3.198-3.383-4.985c-0.253-1.787-6.746-4.417-9.869-3.891c-3.122,0.527-5.179,2.747-7.308,0.389
							c-2.127-2.359-9.035-4.811-11.744-5.639c-2.71-0.828-10.907-2.762-15.149-1.551c-4.246,1.211-5.032,0.97-6.806,0.429
							c-2.552-0.78-2.847-0.414-1.511-4.791c0.414-1.355,3.47-11.358,4.615-15.109c1.146-3.753,3.3-5.917,8.68-4.501
							c5.377,1.413,35.027,12.928,35.027,12.928c1.763,0.69,2.957-0.107,2.957-0.107s4.164-3.561,5.205-4.61
							c1.043-1.048,2.389-0.732,2.389-0.732l6.669,2.037c0,0,41.58,9.072,44.706,10.027c3.126,0.954,1.454,6.16,1.454,6.16
							l-16.613,54.396C877.996,657.771,872.196,659.539,868.967,658.551z"/>
						<path opacity="0.1" enable-background="new    " d="M874.178,590.974c-2.172,1.745-3.903,4.12-4.776,6.979
							c-2.317,7.584,1.88,15.613,9.464,17.929c5.827,1.779,12.021-0.312,15.318-4.913l-1.314,4.31
							c-3.809,3.171-9.375,4.297-14.641,2.688c-8.733-2.668-13.49-11.89-10.822-20.622c0.831-2.722,2.304-5.075,4.201-6.942
							C872.479,590.598,873.308,590.779,874.178,590.974z M897.543,600.627c0.164-1.43,0.115-3.421-1.188-4.337
							C896.97,597.655,897.377,599.117,897.543,600.627z"/>
						<path opacity="0.1" enable-background="new    " d="M856,586.922c-1.059,1.915-1.982,3.953-2.646,6.129
							c-5.133,16.805,4.239,34.562,21.045,39.693c4.338,1.325,8.828,1.704,12.791,1.128l6.573-21.522
							c-2.711,2.678-6.321,4.271-10.163,4.295c1.571-7.241,8.008-9.631,12.092-10.61l1.191-3.902c0,0,1.698-5.292-1.428-6.247
							c-0.079-0.022-0.004,0.002-0.131-0.034c-5.715,0.876-9.201-0.521-11.324-2.657C874.938,591.134,862.816,588.435,856,586.922z
							 M871.477,595.082c6.287,7.095,4.437,13.556,2.168,17.4c-3.588-3.642-5.125-9.088-3.529-14.31
							C870.453,597.067,870.916,596.035,871.477,595.082z"/>
						<path fill="#EF9F00" d="M851.105,585.931c-0.273-0.06-0.383,0.014-0.383,0.014l-6.669-2.037c0,0-1.36-0.321-2.401,0.729
							c-1.043,1.048-5.207,4.562-5.207,4.562s-1.229,0.811-2.992,0.12c0,0-29.599-11.484-34.976-12.898
							c-5.379-1.414-7.536,0.76-8.682,4.513c-1.146,3.751-4.201,13.755-4.615,15.109c-1.336,4.377-1.044,4.019,1.511,4.798
							c1.77,0.542,2.614,0.808,6.856-0.404c4.243-1.21,12.409,0.73,15.119,1.559c2.71,0.827,9.593,3.303,11.721,5.661
							s4.16,0.192,7.283-0.333c3.123-0.528,9.647,1.99,9.9,3.775c0.251,1.785,1.293,4.348,3.378,4.983
							c2.084,0.636,3.229,0.987,3.229,0.987s1.669,0.334,1.396,1.228c0.002-0.006,0.073-0.239,0.073-0.239L851.105,585.931z"/>
						<path fill="#E29000" d="M789.796,580.932c-0.205,0.667-0.47,1.535-0.769,2.517c18.258,5.288,45.467,15.673,45.467,15.673
							l11.852-14.513l-2.292-0.701c0,0-1.359-0.321-2.401,0.729c-1.042,1.048-5.207,4.562-5.207,4.562s-1.229,0.811-2.992,0.12
							c0,0-29.598-11.484-34.975-12.898C793.099,575.006,790.941,577.18,789.796,580.932z"/>
						
							<rect id="glass" x="894.047" y="633.649" transform="matrix(0.1638 -0.9865 0.9865 0.1638 106.5363 1426.9828)" opacity="0.2" fill="#FFFFFF" enable-background="new    " width="1.961" height="33.995"/>
						<path display="none" fill="#9B9B9B" d="M877.9,655.121c0,0-1.604-1.401-2.654,2.038c-1.05,3.438,4.253,8.021,4.253,8.021
							C877.203,662.748,877.9,655.121,877.9,655.121"/>
						
							<rect x="870.263" y="619.222" transform="matrix(0.136 0.9907 -0.9907 0.136 1382.4878 -312.8217)" fill="#E5B486" width="0.654" height="33.937"/>
						<path opacity="0.1" enable-background="new    " d="M877.825,637.76c0,0-0.7-1.01-2.734-1.062
							c-2.035-0.053-19.242-1.548-19.242-1.548s-2.147-0.087-2.848,2.207c-0.253,0.827-0.637,2.087-0.901,2.951l5.021,1.533
							c0,0,8.83,15.79,12.06,16.777c1.662,0.507,3.996,0.069,6.145-0.373c0.673-0.717,1.101-1.523,1.101-1.523l1.974-6.46
							l0.063-0.209l1.948-6.378c0,0,0.295-1.961-0.565-3.249C878.985,639.139,877.825,637.76,877.825,637.76z"/>
						<g>
							<path fill="#E5B486" d="M862.25,637.355c-6.205-1.897-12.795,1.609-14.691,7.815c-1.896,6.205,1.61,12.796,7.817,14.691
								c6.206,1.896,12.795-1.611,14.69-7.817C871.962,645.841,868.456,639.249,862.25,637.355z M862.061,637.979
								c5.869,1.792,9.176,8.005,7.384,13.875c-1.794,5.869-8.007,9.176-13.878,7.384c-5.87-1.793-9.175-8.006-7.383-13.877
								C849.977,639.491,856.189,636.186,862.061,637.979z"/>
							<path fill="#9B9B9B" d="M862.059,637.979c-5.869-1.794-12.083,1.513-13.876,7.383c-1.792,5.871,1.513,12.084,7.384,13.877
								c5.871,1.792,12.082-1.515,13.877-7.385C871.235,645.984,867.93,639.771,862.059,637.979z M861.424,640.062
								c4.711,1.438,7.373,6.444,5.934,11.154c-1.438,4.711-6.44,7.375-11.152,5.937c-4.713-1.438-7.376-6.443-5.938-11.155
								C851.706,641.287,856.711,638.623,861.424,640.062z"/>
						</g>
						<g>
							<path fill="#EF9F00" d="M875.988,638.11c-2.034-0.053-19.069-1.496-19.069-1.496s-1.803,0.02-2.503,2.312
								c-0.578,1.894-1.182,3.869-1.375,4.502c0,0-0.022,0.074-0.064,0.209c-0.195,0.645-0.818,2.687-1.398,4.585
								c-0.701,2.291,0.781,3.313,0.781,3.313s14.867,8.301,16.586,9.395c1.716,1.095,2.768,0.618,2.768,0.618
								s1.631-0.526,3.064-1.115c1.432-0.586,2.195-2.404,2.195-2.404l1.975-6.46l0.062-0.209l1.948-6.378
								c0,0,0.38-1.934-0.479-3.222c-0.858-1.288-1.908-2.635-1.908-2.635S878.021,638.162,875.988,638.11z"/>
							<g>
								<circle id="shadow" opacity="0.1" enable-background="new    " cx="869.604" cy="648.714" r="3.377"/>
								<g>
									<circle fill="#ADADAD" cx="870.229" cy="648.905" r="3.378"/>
									<path fill="#919191" d="M870.836,646.917c1.097,0.335,1.715,1.5,1.381,2.596c-0.335,1.096-1.499,1.715-2.595,1.38
										c-1.096-0.334-1.717-1.5-1.382-2.595C868.575,647.201,869.74,646.583,870.836,646.917z"/>
									<circle fill="#BABABA" cx="870.229" cy="648.905" r="1.688"/>
								</g>
							</g>
						</g>
					</g>
					<g>
						<g>
							<path fill="#9B9B9B" d="M901.816,595.094c-20.929,6.598-19.618-11.117-19.618-11.117
								c-5.831,3.801-10.353,10.396-10.353,10.396c11.881,11.83,0.391,22.22,0.391,22.22c2.947,7.508,12.83,5.742,12.83,5.742
								c-0.988-17.277,17.582-16.164,17.582-16.164C907.172,601.06,901.816,595.094,901.816,595.094z"/>
							<g>
								<path opacity="0.1" enable-background="new    " d="M874.623,613.694c-0.461,0.698-0.916,1.286-1.304,1.747
									c1.491,1.119,3.202,2.007,5.089,2.583c2.26,0.689,4.555,0.866,6.765,0.604c0.101-0.808,0.256-1.56,0.452-2.266
									c-2.131,0.36-4.375,0.249-6.58-0.426C877.405,615.438,875.922,614.667,874.623,613.694z"/>
								<path opacity="0.1" enable-background="new    " d="M879.389,586.084c-1.682,1.419-3.175,2.957-4.382,4.322
									c2.193-1.531,4.795-2.447,7.515-2.589c-0.168-0.809-0.257-1.551-0.299-2.163
									C881.261,585.716,880.312,585.86,879.389,586.084z"/>
								<path opacity="0.1" enable-background="new    " d="M899.281,606.32c0.918-3.556,0.603-7.166-0.697-10.358
									c-0.766,0.168-1.501,0.301-2.199,0.397c1.355,3.052,1.666,6.586,0.616,10.023c-0.034,0.113-0.073,0.224-0.11,0.333
									C897.743,606.529,898.552,606.402,899.281,606.32z"/>
							</g>
							<g>
								<circle fill="#ADADAD" cx="884.931" cy="603.381" r="5.665"/>
								<path fill="#919191" d="M885.949,600.047c1.839,0.562,2.879,2.513,2.316,4.354c-0.562,1.836-2.515,2.875-4.354,2.312
									c-1.838-0.562-2.878-2.513-2.316-4.352C882.157,600.521,884.109,599.484,885.949,600.047z"/>
								<path fill="#BABABA" d="M885.758,600.67c1.494,0.457,2.339,2.043,1.883,3.538c-0.457,1.494-2.044,2.338-3.537,1.883
									c-1.494-0.457-2.339-2.044-1.883-3.538C882.678,601.059,884.265,600.214,885.758,600.67z"/>
							</g>
						</g>
						<g id="tape_1_">
							<path fill="#E5B486" d="M894.624,572.39c-16.806-5.132-34.589,4.331-39.722,21.136c-5.134,16.805,4.33,34.589,21.135,39.722
								s34.589-4.329,39.723-21.135C920.893,595.308,911.429,577.524,894.624,572.39z M890.168,586.979
								c8.732,2.668,13.67,11.944,11.002,20.679c-2.668,8.732-11.944,13.669-20.678,11.002
								c-8.733-2.669-13.668-11.944-11.001-20.679C872.158,589.247,881.436,584.312,890.168,586.979z"/>
							<g>
								<path fill="#BABABA" d="M890.168,586.979c-8.734-2.668-18.01,2.269-20.677,11.002c-2.667,8.735,2.268,18.01,11.001,20.679
									c8.734,2.667,18.01-2.27,20.678-11.002C903.838,598.923,898.9,589.646,890.168,586.979z M889.531,589.064
									c7.584,2.315,11.871,10.371,9.555,17.955s-10.373,11.87-17.957,9.555c-7.585-2.317-11.87-10.372-9.554-17.956
									C873.893,591.033,881.947,586.747,889.531,589.064z"/>
								<path fill="#878787" d="M901.17,607.657c-2.668,8.733-11.943,13.669-20.678,11.002
									c-8.733-2.669-13.668-11.944-11.001-20.679c2.667-8.733,11.944-13.67,20.677-11.002
									C898.901,589.646,903.838,598.923,901.17,607.657 M871.575,598.618c-2.316,7.584,1.969,15.639,9.554,17.956
									c7.584,2.315,15.641-1.971,17.957-9.555s-1.971-15.64-9.555-17.955C881.947,586.747,873.892,591.033,871.575,598.618
									 M901.795,607.848c2.771-9.078-2.357-18.721-11.436-21.492c-9.079-2.774-18.722,2.356-21.494,11.435
									c-2.773,9.08,2.357,18.723,11.436,21.495C889.379,622.057,899.021,616.926,901.795,607.848L901.795,607.848z M872.2,598.809
									c2.211-7.239,9.899-11.33,17.141-9.118c7.238,2.211,11.33,9.899,9.119,17.14s-9.901,11.331-17.14,9.12
									C874.08,613.739,869.988,606.049,872.2,598.809L872.2,598.809z"/>
							</g>
						</g>
					</g>
				</g>
				<path id="arm_1_" fill="#986844" d="M776.08,519.168c-33.43,16.379-39.051,51.482-32.291,70.278
					c2.432,6.762,41.39,29.503,96.419,57.366c13.116-25.906,7.928-76.078,7.928-76.078S827.514,493.965,776.08,519.168z"/>
				<path fill="#895D3D" d="M743.789,589.447c2.432,6.762,41.39,29.503,96.419,57.365c-26.283-37.613-94.812-93.873-95.081-94.096
					C740.127,566.106,740.351,579.886,743.789,589.447z"/>
			</g>
		</g>
		<path fill="#D6A67F" d="M727.195,541.359c4.096,16.423,14.411,35.733,14.411,35.733c36.421-16.772,51.795-26.25,92.618-22.794
			l-21.118-35.025C767.827,513.156,727.195,541.36,727.195,541.359z"/>
	</g>
</g>
<g id="Layer_4">
	<g>
		<rect x="1129.062" y="612.178" fill="#BA7D4A" width="272.52" height="204.391"/>
		<rect x="1129.062" y="612.178" fill="#DA9A5B" width="136.261" height="204.391"/>
		<g id="Page_1_9_">
			<path id="Rectangle_1_9_" fill="#191009" d="M1148.651,705.004h76.646v39.621h-38.324v6.366h-17.012v-6.366h-21.311
				L1148.651,705.004L1148.651,705.004z M1152.992,737.901h8.466v-19.794h4.254v19.794h4.218v-26.18h-16.938V737.901z
				 M1174.15,711.607l0.047,33.018h8.435v-6.588h8.534v-26.43H1174.15z M1182.53,717.975h4.441v13.443h-4.441V717.975z
				 M1195.455,711.607v26.178h8.482v-19.654h4.238v19.654h4.237v-19.574h4.247v19.574h4.24v-26.178H1195.455z"/>
		</g>
		<polygon opacity="0.05" enable-background="new    " points="1401.582,714.372 1299.389,816.566 1401.582,816.566 		"/>
		<rect x="1168.239" y="612.178" fill="#E5B486" width="37.471" height="51.099"/>
	</g>
	<g>
		<rect x="1183.253" y="513.247" fill="#DA9A5B" width="131.908" height="98.931"/>
		<rect x="1278.061" y="513.247" fill="#BA7D4A" width="37.102" height="98.931"/>
		<g id="Page_1_3_">
			<path id="Rectangle_1_3_" fill="#191009" d="M1291.942,558.178h17.312v19.178h-8.655v3.082h-3.844v-3.082h-4.812V558.178z
				 M1292.923,574.102h1.913v-9.58h0.961v9.58h0.952v-12.671h-3.826V574.102z M1297.702,561.374l0.011,15.981h1.905v-3.188h1.928
				v-12.793H1297.702z M1299.596,564.456h1.004v6.507h-1.004V564.456z M1302.516,561.374v12.671h1.916v-9.513h0.957v9.513h0.957
				v-9.475h0.961v9.475h0.957v-12.671H1302.516z"/>
		</g>
		<polygon opacity="0.05" enable-background="new    " points="1315.161,562.712 1265.696,612.178 1315.161,612.178 		"/>
		<rect x="1296.199" y="513.247" fill="#D6A67F" width="9.067" height="24.731"/>
	</g>
</g>
<g id="Layer_6">
	<g>
		<rect x="404.465" y="661.298" fill="#BA7D4A" width="190.438" height="142.828"/>
		<rect x="404.465" y="661.298" fill="#DA9A5B" width="53.562" height="142.828"/>
		<g id="Page_1_8_">
			<path id="Rectangle_1_8_" fill="#191009" d="M412.992,726.166h24.994v27.688h-12.497v4.449h-5.548v-4.449h-6.949V726.166
				L412.992,726.166z M414.406,749.154h2.761v-13.831h1.388v13.831h1.375v-18.293h-5.522L414.406,749.154L414.406,749.154z
				 M421.306,730.779l0.017,23.072h2.75v-4.604h2.783v-18.47L421.306,730.779L421.306,730.779z M424.041,735.229h1.448v9.395h-1.448
				V735.229z M428.253,730.779v18.293h2.769v-13.733h1.383v13.733h1.381v-13.68h1.386v13.68h1.382v-18.293H428.253L428.253,730.779z
				"/>
		</g>
		<polygon opacity="0.05" enable-background="new    " points="594.903,732.712 523.49,804.126 594.903,804.126 		"/>
		<rect x="418.749" y="661.298" fill="#E5B486" width="13.092" height="35.707"/>
	</g>
	<g>
		<rect x="500.011" y="624.406" fill="#DA9A5B" width="256.942" height="192.706"/>
		<rect x="628.482" y="624.406" fill="#BA7D4A" width="128.471" height="192.706"/>
		<g id="Page_1_12_">
			<path id="Rectangle_1_12_" fill="#191009" d="M666.221,711.927h72.267v37.356h-36.134v6.003h-16.041v-6.003h-20.092V711.927
				L666.221,711.927z M670.312,742.943h7.981v-18.662h4.011v18.662h3.979v-24.683h-15.972V742.943z M690.263,718.152l0.044,31.131
				h7.952v-6.211h8.047v-24.92H690.263z M698.164,724.156h4.189v12.675h-4.189V724.156z M710.349,718.152v24.682h7.999v-18.529
				h3.997v18.529h3.995v-18.455h4.005v18.455h3.997v-24.682H710.349z"/>
		</g>
		<polygon opacity="0.05" enable-background="new    " points="756.953,720.76 660.602,817.112 756.953,817.112 		"/>
		<rect x="684.689" y="624.406" fill="#D6A67F" width="35.33" height="48.177"/>
	</g>
</g>
</svg>
