<svg id="Layer_1" data-name="Layer 1" xmlns="http://www.w3.org/2000/svg" xmlns:xlink="http://www.w3.org/1999/xlink" viewBox="0 0 1077 363"><defs><style>.cls-1{fill:none;}.cls-2{fill:#fff;}.cls-3{fill:#d13239;}.cls-4{clip-path:url(#clip-path);}.cls-5{fill:#4e1f0f;}.cls-6{fill:#f9af21;}.cls-7{fill:#c7531c;}</style><clipPath id="clip-path"><rect class="cls-1" x="100" y="78.96" width="395.91" height="197.84" transform="translate(595.91 355.76) rotate(180)"/></clipPath></defs><title>npm@5 flames</title><g id="npm5_logo" data-name="npm5 logo"><rect class="cls-2" x="513.92" y="138.91" width="425.91" height="80.13"/><rect class="cls-2" x="608.71" y="216.19" width="45.52" height="21.99"/><rect class="cls-2" x="830.13" y="116.15" width="107.68" height="28.74"/><path class="cls-3" d="M610.25,121.07V236.68H494.65V121.07Zm-96.34,19.27v77.07h38.54V159.6h19.27v57.8H591V140.34Z"/><path class="cls-3" d="M706.59,121.07V236.68H668.06v19.27H591V121.07Zm-96.34,19.27v96.34h38.54V217.41h38.54V140.34Zm38.54,19.27h19.27v38.54H648.79Z"/><path class="cls-3" d="M687.32,236.68V121.07H841.47V236.68Zm19.27-96.34v77.07h38.54V159.6H764.4v57.8h19.27V159.6h19.27v57.8H822.2V140.34Z"/><path class="cls-3" d="M957.07,101.8V236.68H822.2V101.8ZM841.47,121.07v57.8h57.8v19.27h-57.8v19.27H937.8V159.6H880V140.34h57.8V121.07Z"/><g class="cls-4"><g id="flames"><path class="cls-5" d="M422.51,274.4c-7.64,0-15.24-1.92-23.33-4-2.19-.55-4.46-1.13-6.83-1.69-21.78-5.18-41.45-1.23-61.35,3.64a8.13,8.13,0,0,1-5.43-15.23,120.92,120.92,0,0,1,16.76-6.54A8.13,8.13,0,0,1,345,235l5.15-.33c18.65-1.17,23.66-1.48,37.7-15.56a64.22,64.22,0,0,1,6.32-5.6,122.13,122.13,0,0,0-13.78,2.19C370.29,218,361.42,223.34,352,229c-7.81,4.69-15.88,9.53-25.07,12.84-25.66,9.25-42.67,2.25-62.36-5.85-18-7.41-26.31-5.67-40.39,8.47a8.13,8.13,0,0,1-13.5-8.22c4.11-12.81,11.65-19.32,20.58-22.31-12.1,1.72-25.09-.24-41.67-9.48-24.23-13.51-41.6-8.74-67.91-1.53q-3.74,1-7.67,2.08a8.13,8.13,0,0,1-5.66-15.16c13.9-6.78,28.37-12.83,43.17-15.12a71.55,71.55,0,0,1-14.49-10.08,8.13,8.13,0,0,1,9.08-13.35c2.15,1.11,4.13,2.22,6,3.28,7.57,4.23,12.57,7,20.1,6,5-.64,10.54-3.53,16.41-6.59,5.09-2.65,10.36-5.39,15.93-7a60.66,60.66,0,0,1,24.73-2.24,8.11,8.11,0,0,1,2.12-4.82c5.12-5.55,10.21-9.14,15.2-11.25-7.1-4-13.76-10.14-20.34-19.25a8.13,8.13,0,0,1,12.23-10.61c18.11,17.47,26.91,16.71,52,11.68,15.3-3.07,30.42-5.24,45.93-.17a8.11,8.11,0,0,1,1-.69q1.64-.92,3.31-1.7c-6.32-1.64-12.89-3.7-20-6.11a8.13,8.13,0,0,1,4-15.71c26.95,4.55,44.77,7,70.54-.46,23.38-6.74,38.83-2.44,57,15.87l2.48,2.52c5.68,5.81,10.58,10.82,17.14,13.49,2,.81,6.89,1.06,10.83,1.27,8,.42,16.26.85,21.8,5.13,10,7.69,8.91,26.11,7.79,45.62-.41,7.13-.83,14.5-.27,18.1a8.06,8.06,0,0,1,.1,1.26c0,1.38,0,2.79,0,4.24,0,7.6.1,16.22-1,23.75-.46,3-.58,5-.67,6.47-.44,6.95-2.86,9.92-9.6,11.8-1.21.34-2.71.75-4.8,1.49a80.5,80.5,0,0,1-11.23,2.83c-5,1-9.35,1.86-13.35,4.3s-7.61,6.25-11.32,10.21c-2.34,2.5-4.76,5.09-7.5,7.55C441.88,271.34,432.16,274.4,422.51,274.4Zm-27.34-27.68q2.21.29,4.44.65c14.18,2.27,25.67,1.19,30-2.81,1.1-1,2.52-2.92,2.12-7.54-.12-1.4-.57-4.75-2.1-5.44-4.47-2-17.95,3.44-30.05,12.21Q397.33,245.39,395.16,246.72Zm52-15.79a33.34,33.34,0,0,1,.73,4.67,30,30,0,0,1-.34,8.16l.79-.85a80.94,80.94,0,0,1,12.13-11.27A58.5,58.5,0,0,1,447.17,230.93ZM319.29,190c5.21,6.66,6.77,14.31,4.38,21.55-3,9.2-11.42,15.32-19,18.4a52.63,52.63,0,0,0,16.83-3.43c7.69-2.77,14.74-7,22.21-11.49,4.16-2.5,8.37-5,12.77-7.34-9.67-1.13-17.76-6.26-25-10.87A84.32,84.32,0,0,0,319.29,190Zm152.26-4.71c5.82,3.2,9.93,8.58,11.95,15.7,3.45,12.15-.69,19.39-4.18,23.06l2.4-.48a67,67,0,0,0,9-2.23c1.43-.5,2.67-.89,3.7-1.2.12-1.47.32-3.33.67-5.65,1-6.27.91-14.21.86-21.21,0-1.28,0-2.53,0-3.75-.7-5.27-.28-12.53.2-20.87.49-8.5,1.63-28.42-1.58-31.89-1.61-1.11-8.78-1.49-12.63-1.69l-3.37-.19a27.31,27.31,0,0,1,5.9,6.14c7,10.19,6.58,24.52-1.08,34.86A28.53,28.53,0,0,1,471.55,185.29ZM246.62,211.71c8,0,16.08,1.33,23.29,2.5,9.73,1.59,19.79,3.23,26.23,1.48,5.65-1.54,10.85-5.52,12.09-9.25.42-1.27.69-3.32-1.76-6.44-5.74-7.3-20.39-6-29-2.7-5.52,2.11-10.54,4.26-15.4,6.35-7.7,3.31-14.87,6.39-22.12,8.41A60.29,60.29,0,0,1,246.62,211.71Zm181.31-4.06c4.48,1.34,9,3.19,13.68,5.1,7.88,3.22,21.58,4,25.76.25,1.39-1.25,1.56-3.8.48-7.58-1.18-4.17-3.2-5.52-4.83-6.23-6.34-2.76-18.2.54-26.53,4.79A69.44,69.44,0,0,1,427.93,207.65ZM387.75,158.8a31.76,31.76,0,0,1,6.12,10.34,24.71,24.71,0,0,1-2.44,22.8,31.12,31.12,0,0,1-5.45,6.24c4.07-.59,8-1,11.92-1.39,10.86-1.1,21.13-2.14,31.22-7.29a78.55,78.55,0,0,1,13.73-5.39c-7.21-2.92-13.26-6.95-19.14-10.86-7.83-5.21-15.22-10.12-24.6-11.7A79.3,79.3,0,0,1,387.75,158.8Zm-139.88,9.26A25.14,25.14,0,0,1,249.33,183a28.43,28.43,0,0,1-3.68,10c3.15-1.25,6.47-2.68,10-4.22,5-2.15,10.18-4.37,16-6.6,1.42-.54,2.89-1,4.41-1.47a82.64,82.64,0,0,1-19.94-8C253.27,171,250.52,169.44,247.87,168.06Zm79.34,7.65a108.42,108.42,0,0,1,12.92,7.38c7.51,4.77,14,8.87,21,8.55,5.58-.27,13.35-3.57,16.68-8.64a8.4,8.4,0,0,0,.81-8.15c-3.47-9.22-11.44-12.85-40.45-2.5l-.84.3A97.32,97.32,0,0,1,327.21,175.72ZM184.73,177q1.8.58,3.6,1.28c1,.4,2.22.87,3.51,1.39,8.74,3.5,29.2,11.71,37.59,7.07,1.29-.71,3.1-2.18,3.91-6.64.91-5-.94-6.56-1.83-7.28-6.29-5.14-24.47-4.1-33-.7C193.68,174,189.13,175.7,184.73,177ZM423.6,153.89c3.15,1.86,6.14,3.85,9.1,5.82,6.37,4.24,12.38,8.24,19.4,10.48,8,2.54,14.45,1.12,18.24-4,3.53-4.76,3.84-11.47.75-15.95-4-5.77-13.24-7.12-25.4-3.7-3.74,1.05-7.35,2.37-10.85,3.64S427.47,152.88,423.6,153.89ZM248,150.14a172.49,172.49,0,0,1,16.19,8.34,70.17,70.17,0,0,0,19.65,7.31c-2.85-2-5.39-3.92-7.85-5.76C264.33,151.29,258.75,147.1,248,150.14Zm90.49-21.32c2.17,4,3.54,9.65,1.93,17.49a28,28,0,0,1-3.59,9.29c8.68-3,21.2-6.67,32.6-5.48-4.75-3-9.2-6.25-13.74-9.59-4-2.95-8.13-6-12.76-9.06A51.11,51.11,0,0,0,338.5,128.82Zm-55.38,5.75c4.27,2.65,8.22,5.57,11.76,8.19,6.88,5.09,18.88,9.1,25.09,6.72,1.62-.62,3.6-1.91,4.53-6.44,1.06-5.16-.37-6.69-.84-7.2-5.31-5.72-25.85-3-32.61-2.17l-2.67.34Q285.71,134.33,283.12,134.56Zm80.57-8.35,1.66,1.22c4.6,3.39,8.81,6.49,13.17,9.18C372.75,131.44,368.57,128.09,363.69,126.21Zm80.2-10.08a31,31,0,0,1-.61,11.46q-.36,1.59-.82,3a57.34,57.34,0,0,1,15.47-2.16C452.54,124.87,448.14,120.48,443.89,116.13Zm-54.56-4.91a72.89,72.89,0,0,1,6.91,4.5c19.36,14.21,26.32,13.93,28.41,13.15,1.51-.56,2.34-3,2.78-4.89,1.4-6.17-.56-8.27-1.29-9.05-5.12-5.47-21.08-6.2-34.19-4.11Z"/><path id="flames-2" data-name="flames" class="cls-6" d="M504.1,186.61c-2-13.06,5.52-50.84-4.46-58.54-6.25-4.83-23.26-2.26-30.73-5.3-9.2-3.74-15.3-10.74-22.32-17.82-15.64-15.77-27.88-19.86-49-13.79-27.27,7.86-46.46,5.34-74.14.67,23.72,8.05,42.36,12.62,67.18,8.65,13.61-2.18,50.92-4.36,44.7,23-5.54,24.37-34.53,3.39-43.93-3.51-14.87-10.91-32.84-15.1-49.89-5.53,27.49-2.72,32.25,4.89,52.28,22.74,17.19,15.31,30.7,4.58,49.67-.76,52.79-14.85,46.07,51.92,6.15,39.21-18.26-5.82-29.24-21.05-49.2-24.4-23-3.86-33.66-16-53-28.85-18.15-12-35-10.25-55.26-6.19-27.18,5.45-38.89,5.83-59.24-13.8,15.11,20.92,29.66,24.24,54.48,21.24,12.35-1.49,50.58-8.2,45,18.73C328,164.28,301,155,290.05,147c-18.11-13.4-34.28-23.67-52.58-3.82,23.8-10.85,31.78.08,51.42,13.93,16.31,11.5,27.34,12.16,45.74,5.61,14.9-5.31,43-15.83,51.63,7,6,16-11.68,27.14-24.7,27.77-15.94.77-27.62-13.82-42.42-18.47-20.83-6.54-39.28-4.58-58.94-15.74C242,152.9,228,146.42,206.88,152.49c-11.07,3.18-22.23,12.37-33.55,13.83-12.52,1.62-20-4.5-30.91-10.17,19.44,16.95,31.12,14.78,53.07,6,12.88-5.13,50.36-7.95,45.84,17-4.88,26.93-42.37,9.57-55.94,4.32-25.18-9.75-50.15,0-73.43,11.3,31-8.3,52-16.31,81.63.2,33.17,18.49,49.12,4.55,81-7.62,11.14-4.25,29.61-5.72,38.25,5.28,10.24,13-2.31,25.21-14.59,28.55-23.68,6.45-68.38-20.53-79.82,15.17,16.29-16.37,28.08-19,49.24-10.26,20.51,8.44,34.5,13.66,56.51,5.72,19.22-6.93,34.14-21.77,54.34-26.37,19-4.33,36.26-1.88,54.26-11.05,12.06-6.15,37.11-13.84,42.87,6.46,7.06,24.89-25,22-37.14,17.07-18.79-7.69-29.3-11.12-45,4.59-17.57,17.62-24.81,16.69-48.06,18.26,18.92,4.73,32.66,6.11,49.27-5.93,9.75-7.06,42.71-27.42,45-.88,2.06,23.67-28.33,21.19-41.49,19.08-24.08-3.86-46.74-1.64-69.24,9.09,22.28-5.45,42.48-9,65.16-3.65,21.69,5.15,34.82,11.11,53.06-5.3,6.85-6.16,12.1-13.83,20-18.66,8.47-5.16,17.25-4.76,26.13-7.87,11.64-4.07,7.65.33,9.72-13.3C504.42,205.12,504.1,195.07,504.1,186.61Z"/><path class="cls-7" d="M422.49,266.29c-6.84,0-13.87-1.78-21.89-3.8-2.21-.56-4.51-1.14-6.91-1.71-23-5.47-43.45-1.4-64.07,3.65a2.32,2.32,0,0,1-1.55-4.35c21.76-10.38,44.86-13.42,70.61-9.29,7.76,1.24,26.68,3.31,34.86-4.3,3.12-2.91,4.41-6.93,3.95-12.29S435.23,225.43,432,224c-8.82-4-26.7,6.14-35.87,12.79-18.16,13.16-33.3,10.78-51.2,6.3a2.32,2.32,0,0,1,.41-4.57l5.13-.33c19.34-1.21,25.86-1.62,41.45-17.25,16.57-16.61,28.26-13,47.49-5.1,7.62,3.12,24.77,5.51,31.83-.8,3.19-2.85,3.93-7.39,2.2-13.49-1.4-4.94-4-8.2-8.09-10-8.67-3.79-22.38.29-31.49,4.94-11.83,6-23.56,7.22-34.91,8.37a161.79,161.79,0,0,0-19.89,2.87c-11,2.5-20.22,8.05-30,13.93-7.57,4.54-15.4,9.24-24,12.36-22.41,8.08-36.71,3.07-58.19-5.76-20.12-8.28-31-6-46.71,9.75a2.32,2.32,0,0,1-3.86-2.35c8.12-25.33,31.82-21.46,52.73-18,10.82,1.76,21,3.43,28.69,1.35s14.22-7.43,16.07-13c1.3-3.93.39-7.91-2.7-11.85-8-10.23-25.69-8.32-35.6-4.54-5.63,2.15-10.71,4.33-15.62,6.44-22.7,9.75-39.1,16.8-67.36,1-26.3-14.66-45.58-9.37-72.27-2.06q-3.72,1-7.63,2.07a2.32,2.32,0,0,1-1.62-4.33c22.42-10.93,48.58-21.72,75.29-11.38l3.44,1.37c11.1,4.45,31.76,12.73,42.56,6.76,3.65-2,5.88-5.51,6.81-10.69,1-5.66-.24-9.85-3.87-12.81-3.94-3.22-10.81-5-19.35-4.89a58.52,58.52,0,0,0-19.48,3.29c-22.43,8.93-35.21,11.21-55.46-6.44a2.32,2.32,0,0,1,2.59-3.81c2.07,1.07,4,2.15,5.87,3.19,8,4.44,14.25,8,23.68,6.74,6-.78,12.28-4,18.35-7.2,4.84-2.52,9.84-5.12,14.86-6.56,22.07-6.35,36.76.53,55.1,10.94,11.72,6.66,23,8.5,34.93,10.46a165.59,165.59,0,0,1,23.56,5.09c6.18,1.94,11.78,5.49,17.19,8.93,8,5.07,15.56,9.87,24.43,9.44,7.11-.34,16.7-4.31,21.25-11.25a14.14,14.14,0,0,0,1.39-13.38c-7-18.71-28.38-12.87-47.83-5.93l-.84.3c-19.87,7.08-31.5,5.64-47.86-5.9-2.92-2.06-5.53-4-8.06-5.91-14.19-10.63-22-16.49-41.05-7.81a2.32,2.32,0,0,1-2.67-3.69c20.64-22.38,40.06-8,55.67,3.53,6.9,5.1,21.41,11,30.62,7.48,4.34-1.66,7-5.16,8.14-10.7s.37-9.47-2.27-12.32c-7.35-7.91-27.78-5.25-37.61-4l-2.62.33c-24.24,2.92-40.44.25-56.64-22.19a2.32,2.32,0,0,1,3.5-3c19.52,18.83,30,18.65,57.17,13.2,16.57-3.32,31.86-5.44,47.66,1.42l-.07-.19a2.32,2.32,0,0,1,1.08-2.72c16.32-9.16,34.93-7.15,52.4,5.68,5.93,4.35,24,17.59,33.88,13.91,3.2-1.19,5.3-4.15,6.41-9,1.41-6.18.52-10.86-2.72-14.31-7.31-7.81-25.77-8-39.35-5.87-24.31,3.88-42.75-.07-68.29-8.74a2.32,2.32,0,0,1,1.13-4.49c27.85,4.7,46.67,7,73.11-.61,21.25-6.12,34.66-2.36,51.26,14.38l2.45,2.49c5.88,6,11.43,11.69,19.1,14.81,2.89,1.17,7.89,1.44,12.72,1.69,7.1.37,14.45.76,18.56,3.93,7.54,5.82,6.52,23.54,5.54,40.69-.45,7.78-.87,15.12-.21,19.33a2.28,2.28,0,0,1,0,.36c0,1.39,0,2.82,0,4.27,0,7.39.09,15.76-1,22.85-.49,3.25-.63,5.4-.73,7-.28,4.5-1,5.36-5.36,6.58-1.22.34-2.89.81-5.16,1.6a75.9,75.9,0,0,1-10.45,2.62c-5.33,1.06-10.36,2.07-15.24,5S460,243.48,456,247.73c-2.26,2.41-4.59,4.91-7.14,7.2C439.32,263.5,431.06,266.29,422.49,266.29Zm-45.87-12.64a100.8,100.8,0,0,1,18.14,2.6c2.43.58,4.75,1.16,7,1.73,17.28,4.37,28.7,7.26,44-6.5,2.4-2.16,4.67-4.58,6.85-6.92,4-4.3,8.18-8.74,13.51-12,5.58-3.4,11.26-4.53,16.75-5.63a72.32,72.32,0,0,0,9.82-2.45c2.41-.84,4.17-1.33,5.45-1.69.72-.2,1.45-.4,1.82-.55.07-.38.11-1.12.16-1.84.1-1.56.25-3.93.77-7.38,1-6.72,1-14.9.93-22.12,0-1.41,0-2.78,0-4.12-.7-4.71-.29-11.86.19-20.14.78-13.68,1.86-32.42-3.74-36.74-3-2.29-9.87-2.65-16-3-5.46-.29-10.62-.56-14.23-2-8.57-3.49-14.44-9.5-20.67-15.86l-2.43-2.47C429.38,90.9,418,87.7,398.26,93.39a122,122,0,0,1-40.84,5,103.76,103.76,0,0,0,32.87-.23c5.32-.85,32.43-4.5,43.47,7.28,4.31,4.6,5.61,10.83,3.86,18.52-1.47,6.44-4.6,10.6-9.32,12.36-11,4.1-27.09-6.32-38.25-14.51-7.05-5.17-19.47-12.06-33.77-10.06,14.31,1.16,21.25,7.48,33.21,18.36,1.82,1.65,3.76,3.42,5.87,5.3,12.5,11.14,22.83,7.38,35.9,2.62,3.68-1.34,7.49-2.73,11.6-3.88,16.73-4.71,30.16-1.86,36.84,7.83,5.64,8.18,5.24,19.73-1,28.1-6.46,8.72-17.61,11.61-29.81,7.72-8.42-2.68-15.33-7.28-22-11.73-8.36-5.56-16.25-10.81-26.85-12.59-17.87-3-28.55-10.87-40.91-20-4.06-3-8.25-6.08-13-9.23-17.78-11.8-34.07-9.75-53.52-5.85-11.39,2.28-20.21,3.66-28.09,3.13,6.65,1.08,14,.76,22.59-.27l2.57-.33c11.4-1.48,32.63-4.24,41.61,5.42,3.69,4,4.84,9.49,3.42,16.41s-5.25,11.89-11,14.1c-11.58,4.43-27.64-2.61-35-8.08-15.37-11.37-27.28-18.72-40-11.87,13.62-2.55,22.05,3.76,33.56,12.38,2.5,1.87,5.09,3.81,8,5.83,15.06,10.62,25.25,11.86,43.63,5.32l.84-.3c15.56-5.55,44.51-15.88,53.74,8.67a18.79,18.79,0,0,1-1.85,17.57c-5.66,8.61-16.88,12.95-24.91,13.34-10.35.48-18.88-4.92-27.14-10.16-5.16-3.27-10.5-6.66-16.09-8.42a162,162,0,0,0-22.92-4.94c-12.36-2-24-3.94-36.48-11-17.89-10.16-31.15-16.38-51.52-10.51a62.25,62.25,0,0,0-10.76,4.55c10.68-3.44,31.32-5.13,41.35,3.08,3.43,2.8,7.16,8.07,5.5,17.24-1.19,6.54-4.26,11.23-9.14,13.93-12.73,7-33.89-1.44-46.54-6.51-1.25-.5-2.39-1-3.39-1.35-13.31-5.15-26.64-4.61-39.46-1.38,15.93-2.56,31.31-1.52,49.63,8.69,26.27,14.64,41,8.32,63.27-1.25,5-2.13,10.07-4.33,15.8-6.51,13.41-5.11,31.93-5.42,40.91,6,5.12,6.52,4.71,12.4,3.46,16.18-2.71,8.2-11.63,14-19.26,16.05-8.63,2.35-19.33.6-30.66-1.24-2.75-.45-5.48-.89-8.17-1.28a88.14,88.14,0,0,1,8.52,3c21.06,8.66,34,13.2,54.84,5.69,8.22-3,15.85-7.54,23.23-12,9.68-5.81,19.69-11.82,31.38-14.48a165.5,165.5,0,0,1,20.45-3c11.42-1.16,22.21-2.25,33.27-7.89,10.49-5.34,25.32-9.48,35.46-5.05,5.32,2.32,8.92,6.68,10.7,13,2.81,9.91-.39,15.38-3.57,18.22-9,8.07-28.34,5-36.68,1.63-18.9-7.73-27.87-10.53-42.44,4.08-12.64,12.68-20.35,16.12-31.67,17.56,10.8.87,19.66-1.35,29.87-8.76,4.49-3.25,27.54-19.18,40.53-13.25,4.8,2.19,7.55,6.92,8.17,14,.59,6.79-1.23,12.21-5.41,16.1-9.33,8.68-28.29,7.16-38.76,5.48A131.57,131.57,0,0,0,376.63,253.65ZM234.87,221.39a21,21,0,0,0-6.48,3.54A40.34,40.34,0,0,1,234.87,221.39Zm107.44-104.7a62.19,62.19,0,0,1,6.42,3.74c4.84,3.21,9.08,6.33,13.18,9.36,12.37,9.12,22.15,16.32,38.92,19.14,11.58,1.94,20.26,7.72,28.66,13.3,6.72,4.47,13.06,8.69,20.86,11.17,10.37,3.31,19.36,1.09,24.67-6.06,5-6.69,5.32-16.24.87-22.7-5.48-7.95-17.05-10.13-31.76-6-3.94,1.11-7.67,2.47-11.27,3.78-13.37,4.87-26,9.46-40.58-3.52-2.13-1.89-4.08-3.67-5.91-5.34C371.17,119.73,365.42,114.49,342.31,116.69Z"/></g></g></g></svg>