<svg id="Layer_1" data-name="Layer 1" xmlns="http://www.w3.org/2000/svg" viewBox="0 0 786 393"><title>Artboard 1</title><path d="M261.7,131.27v131.1H130.59V131.27ZM152.44,153.12v87.4h43.7V175H218v65.55h21.85v-87.4Z"/><path d="M371,131.27v131.1h-43.7v21.85h-87.4v-153ZM261.7,153.12V262.38h43.7V240.52h43.7v-87.4ZM305.4,175h21.85v43.7H305.4Z"/><path d="M349.1,262.38V131.27H523.91v131.1ZM371,153.12v87.4h43.7V175H436.5v65.55h21.85V175H480.2v65.55h21.85v-87.4Z"/><path d="M655,109.42v153h-153v-153ZM523.9,131.27v65.55h65.55v21.85H523.9v21.85H633.16V175H567.61V153.12h65.55V131.27Z"/></svg>